<svg width="50" height="50" viewBox="0 0 101 101" fill="none" xmlns="http://www.w3.org/2000/svg">
<path d="M32.5283 78.1091C32.5283 78.1091 27.2952 80.3535 36.2527 81.113C47.1046 82.0259 52.6506 81.8952 64.6096 80.2257C64.6096 80.2257 67.7539 81.6797 72.1444 82.9392C45.3362 91.413 11.4715 82.4482 32.5283 78.1091ZM29.2524 67.0511C29.2524 67.0511 23.3829 70.2556 32.3471 70.9393C43.9393 71.8213 53.0939 71.8935 68.9351 69.6438C68.9351 69.6438 71.1262 71.282 74.5714 72.178C42.1582 79.1683 6.05599 72.7293 29.2524 67.0511Z" fill="#4285F4"/>
<path d="M56.8689 48.2935C63.4746 53.9023 55.1334 58.9496 55.1334 58.9496C55.1334 58.9496 71.9059 52.5638 64.203 44.567C57.0088 37.11 51.4914 33.4043 81.359 20.6292C81.359 20.6292 34.477 29.265 56.8689 48.2935Z" fill="#EA4335"/>
<path d="M92.3253 86.2882C92.3253 86.2882 96.1979 88.6413 88.0601 90.462C72.586 93.9194 23.6548 94.9634 10.0618 90.5998C5.17567 89.0323 14.3389 86.8566 17.2211 86.3999C20.227 85.9191 21.9451 86.0089 21.9451 86.0089C16.511 83.1855 -13.1786 91.5525 6.86439 93.9484C61.5239 100.486 106.503 91.0048 92.3253 86.2882ZM35.0445 55.594C35.0445 55.594 10.1554 59.9542 26.2309 61.5371C33.0183 62.2074 46.5491 62.0559 59.1528 61.2768C69.4532 60.6364 79.7961 59.2737 79.7961 59.2737C79.7961 59.2737 76.1641 60.4209 73.5364 61.7442C48.2616 66.6468 -0.56494 64.3661 13.4916 59.3512C25.3792 55.1133 35.0445 55.594 35.0445 55.594ZM79.6934 74.0002C105.387 64.1535 93.5073 54.691 85.2155 55.966C83.183 56.2777 82.277 56.548 82.277 56.548C82.277 56.548 83.0316 55.6765 84.4725 55.2993C100.876 51.0459 113.492 67.8437 79.1771 74.4965C79.1771 74.4968 79.5748 74.2347 79.6934 74.0002Z" fill="#4285F4"/>
<path d="M64.2031 0.000292427C64.2031 0.000292427 78.4325 10.4986 50.7072 26.641C28.4747 39.5904 45.6375 46.9737 50.6981 55.4095C37.7205 46.774 28.1964 39.172 34.5861 32.0969C43.9638 21.7106 69.9441 16.6756 64.2031 0.000292427Z" fill="#EA4335"/>
<path d="M37.5695 100.682C62.2317 101.847 100.103 100.036 101 91.4299C101 91.4299 99.2761 94.6929 80.6181 97.2838C59.5684 100.205 33.6068 99.8642 18.2085 97.9918C18.2089 97.9918 21.3603 99.916 37.5695 100.682Z" fill="#4285F4"/>
</svg>
