<svg width="50" height="50" viewBox="0 0 79 59" fill="none" xmlns="http://www.w3.org/2000/svg">
<path d="M31.0357 1.56835H16.9286V36.5822C16.9286 45.246 13.7488 47.665 8.2153 47.665C5.62223 47.665 3.28697 47.2496 1.47032 46.666L0 56.916C2.59219 57.7501 6.57023 58.25 9.68226 58.25C22.3872 58.25 31.0357 52.669 31.0357 36.6681V1.56835ZM61.8004 0.25C48.1442 0.25 39.5 7.49967 39.5 17.0822C39.5 25.3345 46.157 30.5013 55.8362 33.8338C62.8369 36.1667 65.604 38.251 65.604 41.6669C65.604 45.4165 62.4054 47.8336 56.3554 47.8336C50.7367 47.8336 45.6359 46.0804 42.1788 44.3313V44.3279L39.5 54.7448C42.7868 56.4976 48.9237 58.247 55.5763 58.247C71.568 58.2467 79 50.247 79 40.8309C79 32.8312 74.2462 27.6655 63.9621 23.9972C56.355 21.1646 53.1578 19.5821 53.1578 15.9988C53.1578 13.1647 55.9242 10.5829 61.6297 10.5829C67.2454 10.5829 71.1069 12.3471 73.3571 13.432L76.7296 2.88653C73.2028 1.43966 68.4528 0.25 61.8004 0.25Z" fill="#FFC700"/>
</svg>
