<svg width="50" height="50" viewBox="0 0 101 101" fill="none" xmlns="http://www.w3.org/2000/svg">
<path d="M86.9456 57.997C83.4143 58.0236 80.3564 59.1551 77.7917 60.8398C76.8448 58.3395 75.8978 56.1547 75.7402 54.5232C75.5626 52.6282 75.3456 51.4699 75.5626 49.2067C75.7794 46.9429 76.7658 43.732 76.7658 43.4688C76.7459 43.2319 76.5486 42.0739 74.5168 42.0475C72.485 42.0212 70.729 42.5739 70.5317 43.2845C70.3344 43.9952 69.9399 45.627 69.6834 47.3114C69.3283 49.7854 65.6194 58.5497 63.5084 63.1556C62.8179 61.3659 62.2261 59.7867 62.1075 58.5232C61.9302 56.6284 61.713 55.4701 61.9302 53.2069C62.1472 50.9432 63.1336 47.7325 63.1336 47.4693C63.1139 47.2324 62.9166 46.0744 60.8848 46.0481C58.8526 46.0218 57.0969 46.5745 56.8997 47.2851C56.7024 47.9957 56.4854 49.6801 56.0513 51.3119C55.6369 52.9437 50.7048 67.5773 49.4224 71.3936C48.7714 73.3412 48.1995 74.894 47.785 75.9468C47.3707 76.9996 47.7653 76.0258 47.7258 76.131C47.3707 77.0259 47.1734 77.526 47.1734 77.526V77.5525C46.8972 78.2105 46.6013 78.8419 46.463 78.8419C46.3644 78.8419 46.1671 77.0785 46.5025 74.6574C47.2324 69.5775 49.008 61.6557 48.9884 61.3662C48.9884 61.2346 49.3236 59.8394 47.844 59.129C46.4038 58.4184 45.8911 59.6028 45.7725 59.6028C45.6541 59.6028 45.5555 60.0239 45.5555 60.0239C45.5555 60.0239 47.1535 51.1019 42.4976 51.1019C39.5778 51.1019 35.5533 55.3393 33.5607 59.2082C32.2981 60.1294 29.615 62.0768 26.7742 64.1563C25.6891 64.9459 24.5646 65.7881 23.4993 66.5513L23.2825 66.235C17.6402 58.2076 7.20391 52.5226 7.63794 41.7317C7.79576 37.8101 8.82163 27.4667 27.6821 14.9387C43.1293 4.67415 55.499 7.49031 57.6491 13.7543C60.707 22.7029 51.0402 39.3367 34.9815 41.7317C28.8658 42.6529 25.6499 39.4946 24.8412 38.3102C23.9929 37.0732 23.8745 37.0206 23.5589 37.2574C23.0459 37.6259 23.3616 38.7313 23.5589 39.3893C24.0323 41.0474 26.0052 43.9952 29.359 45.4691C32.2983 46.7587 39.4796 47.4693 48.16 42.995C57.8861 37.9681 65.4815 24.0188 63.2522 12.3594C60.9834 0.489379 46.2267 -3.40588 32.2788 3.20027C23.973 7.14816 14.9769 13.3069 8.50598 21.3869C0.81195 30.9671 -0.411204 39.3367 0.101732 42.8108C1.8972 55.2072 14.7007 63.2872 19.83 69.2617C19.5735 69.4457 19.3368 69.6299 19.1198 69.7881C16.5551 71.4723 6.78962 78.2892 4.34331 85.5004C1.58135 93.6594 4.77734 99.5289 6.90799 100.318C13.4972 102.766 20.2443 98.3708 23.894 91.133C27.5239 83.8952 27.09 74.4992 25.4131 70.2092L25.3537 70.0513L27.366 68.4721C28.6683 67.4457 29.9506 66.4982 31.0749 65.682C30.4438 67.9718 29.9899 70.6827 29.7533 74.6306C29.4771 79.263 30.8976 85.2636 32.7718 87.6323C33.6004 88.6585 34.5868 88.6851 35.1984 88.6851C37.3685 88.6851 38.3549 86.2898 39.4399 83.4212C40.7815 79.9208 41.9652 75.8676 41.9652 75.8676C41.9652 75.8676 40.4855 86.8427 44.5298 86.8427C46.0095 86.8427 47.4891 84.2898 48.1598 82.9738V83.0001C48.1598 83.0001 48.1993 82.9211 48.2782 82.7369C48.361 82.5736 48.4399 82.4069 48.5149 82.2371V82.1845C49.1068 80.8159 50.4286 77.6839 52.4014 72.499C54.9462 65.8139 57.3927 57.4443 57.3927 57.4443C57.3927 57.4443 57.6294 59.4972 58.3594 62.8661C58.7932 64.8666 59.7401 67.0509 60.4701 69.1827C59.8782 70.2882 59.5231 70.9201 59.5231 70.9201L59.5429 70.9464C59.0696 71.7886 58.5367 72.6837 57.9845 73.5783C55.9722 76.7893 53.5654 80.4479 53.2497 81.5007C52.8749 82.7374 52.9538 83.6586 53.6838 84.3958C54.2164 84.9222 55.1634 85.0272 56.1695 84.9222C57.9845 84.764 59.2471 84.159 59.8784 83.7902C60.8648 83.3165 61.9894 82.6058 63.0744 81.5531C65.0472 79.6057 66.2507 76.8422 66.1323 73.1575C66.0731 71.1309 65.5799 69.1306 64.9683 67.2356C65.1459 66.8935 65.3236 66.5511 65.501 66.1829C68.6181 60.1028 71.0249 53.418 71.0249 53.418C71.0249 53.418 71.2617 55.4709 71.9916 58.8398C72.3662 60.5505 73.1161 62.4195 73.7869 64.2618C70.8671 67.4465 69.0324 71.1312 68.4011 73.5525C67.2371 78.0268 68.1446 80.0534 69.8609 80.5271C70.6302 80.7377 71.7351 80.264 72.5635 79.7902C73.5894 79.3428 74.8323 78.5793 75.9767 77.4478C77.9495 75.5002 79.8435 72.7893 79.7448 69.1309C79.6856 67.4465 79.3502 65.7883 78.8965 64.2092C81.3823 62.8406 84.5978 62.051 88.6817 62.709C97.4608 64.0776 99.1969 71.3944 98.8617 74.4474C98.5263 77.5007 96.6916 79.1849 96.0798 79.7112C95.4683 80.2113 95.271 80.3958 95.3302 80.764C95.4091 81.317 95.6853 81.2904 96.2179 81.1854C96.9479 81.0272 100.834 78.6851 100.992 73.053C101.229 65.8141 96.0798 57.9183 86.9456 57.997ZM19.2382 88.4485C16.3381 92.6859 12.2544 94.2913 10.5183 92.9227C8.64408 91.4752 9.37383 85.2375 12.9448 80.7369C15.115 77.9997 17.9361 75.4731 19.7906 73.9202C20.2049 73.5781 20.8362 73.0783 21.5858 72.4727C21.7042 72.3676 21.7831 72.3147 21.7831 72.3147C21.9212 72.2095 22.079 72.0779 22.2369 71.9463C23.5587 78.3682 22.2961 84.0005 19.2382 88.4485ZM40.4461 69.2091C39.4399 72.499 37.3093 80.9475 36.0269 80.4737C34.922 80.0789 34.2514 73.6833 35.8097 67.3667C36.5989 64.1818 38.2758 60.3921 39.2622 58.9179C40.8604 56.5492 42.5963 55.7596 43.0305 56.7334C43.5434 57.997 41.0774 67.1562 40.4461 69.2091ZM57.9451 80.3684C57.511 80.6582 57.1165 80.8685 56.9389 80.7109C56.8008 80.6056 57.1163 80.2108 57.1163 80.2108C57.1163 80.2108 59.3061 77.0788 60.1742 75.6312C60.6674 74.7893 61.2592 73.8155 61.8905 72.7098V73.0256C61.8907 76.8153 59.1682 79.342 57.9451 80.3684ZM71.439 76.2626C71.1234 75.9468 71.163 74.973 72.2281 71.9199C72.6426 70.7093 73.5894 68.6827 75.2268 66.7614C75.4241 67.5509 75.5427 68.3139 75.5228 69.0248C75.5032 73.7623 72.978 75.5257 71.439 76.2626Z" fill="#D45985"/>
</svg>
