<svg width="83" height="33" viewBox="0 0 93 55" fill="none" xmlns="http://www.w3.org/2000/svg">
<path d="M76.3812 16.0245C72.9096 14.8492 69.8453 12.7361 67.5395 9.92736C64.9984 6.79796 61.7626 4.28133 58.0798 2.56999C54.3971 0.858645 50.3649 -0.00206947 46.2917 0.0536893C40.8124 -0.327719 35.3881 1.33338 31.0988 4.70618C26.8095 8.07898 23.97 12.916 23.1458 18.254C24.7692 15.5842 27.2123 13.4895 30.1238 12.2712C33.0353 11.0529 36.2649 10.7739 39.3479 11.4744C42.8137 12.6838 45.8731 14.8093 48.1896 17.617C50.7447 20.7214 53.9866 23.212 57.6686 24.8993C61.3506 26.5867 65.3757 27.4262 69.4375 27.3542C74.9167 27.7356 80.3411 26.0745 84.6304 22.7017C88.9197 19.3289 91.7591 14.4918 92.5833 9.15385C90.9895 11.8556 88.5541 13.982 85.6367 15.2191C82.7192 16.4563 79.4744 16.7386 76.3812 16.0245ZM16.2021 38.6839C19.6737 39.8591 22.7381 41.9723 25.0438 44.781C27.585 47.9104 30.8207 50.427 34.5035 52.1383C38.1863 53.8497 42.2185 54.7104 46.2917 54.6546C51.7709 55.0361 57.1953 53.375 61.4846 50.0022C65.7738 46.6294 68.6133 41.7923 69.4375 36.4543C67.8142 39.1241 65.371 41.2189 62.4595 42.4371C59.5481 43.6554 56.3184 43.9344 53.2354 43.2339C49.7696 42.0245 46.7102 39.8991 44.3937 37.0913C41.8317 33.9946 38.5885 31.5095 34.9081 29.8229C31.2277 28.1363 27.2061 27.2922 23.1458 27.3542C17.6666 26.9728 12.2422 28.6339 7.95293 32.0067C3.66365 35.3795 0.824186 40.2165 0 45.5545C1.59385 42.8528 4.02926 40.7264 6.94668 39.4892C9.8641 38.2521 13.1089 37.9697 16.2021 38.6839Z" fill="#3F9ED4"/>
</svg>
