<svg width="40" height="50" viewBox="0 0 63 56" fill="none" xmlns="http://www.w3.org/2000/svg">
<path d="M15.93 55.9C13.89 55.9 12.18 55.45 10.8 54.55C9.42 53.65 8.73 52.45 8.73 50.95C8.73 45.07 14.1 38.65 24.84 31.69C32.7 26.53 40.83 22.54 49.23 19.72C49.47 19.72 49.65 19.69 49.77 19.63C49.95 19.51 50.04 19.54 50.04 19.72C50.04 20.02 49.59 20.41 48.69 20.89C23.37 34.33 10.71 44.41 10.71 51.13C10.71 53.59 11.91 54.82 14.31 54.82C17.79 54.82 21.9 53.2 26.64 49.96C30.72 47.14 34.59 44.02 38.25 40.6C41.91 37.12 45.39 33.34 48.69 29.26C55.29 20.92 58.59 14.2 58.59 9.1C58.59 4.48 55.29 2.17 48.69 2.17C43.47 2.17 36.51 4.03 27.81 7.75C24.63 9.13 21.54 10.69 18.54 12.43C15.54 14.11 12.75 15.85 10.17 17.65C4.83 21.43 2.16 24.4 2.16 26.56C2.16 27.82 2.88 28.9 4.32 29.8C4.32 29.8 4.32 29.83 4.32 29.89C4.38 29.89 4.41 29.92 4.41 29.98C4.41 30.16 4.17 30.25 3.69 30.25C3.21 30.25 2.61 29.74 1.89 28.72C1.17 27.7 0.81 26.77 0.81 25.93C0.81 23.11 3.66 19.66 9.36 15.58C14.94 11.62 21.51 8.17 29.07 5.23C36.45 2.29 42.51 0.819997 47.25 0.819997C57.57 0.819997 62.73 4.27 62.73 11.17C62.73 15.37 60.99 20.11 57.51 25.39C55.77 28.03 53.85 30.58 51.75 33.04C49.71 35.5 47.46 37.84 45 40.06C42.6 42.28 40.11 44.32 37.53 46.18C34.95 48.04 32.28 49.75 29.52 51.31C24.12 54.37 19.59 55.9 15.93 55.9Z" fill="black"/>
</svg>
