<svg width="350" height="531" viewBox="0 0 650 631" fill="none" xmlns="http://www.w3.org/2000/svg">
<path d="M83.325 628.475C83.025 628.475 82.875 628.325 82.875 628.025C82.875 624.658 82.7667 622.083 82.55 620.3C82.3333 618.5 81.9583 617.6 81.425 617.6C80.525 617.6 79.2083 620.742 77.475 627.025V627.05C77.475 627.25 77.4083 627.425 77.275 627.575C77.1417 627.708 76.9667 627.775 76.75 627.775C76.45 627.775 76.3 627.625 76.3 627.325C76.3 626.658 76.3333 625.625 76.4 624.225C76.4667 622.658 76.5 621.425 76.5 620.525C76.5 619.275 76.4583 618.392 76.375 617.875C76.3083 617.342 76.15 617.075 75.9 617.075C75.3333 617.075 74.6167 618.117 73.75 620.2C72.8833 622.267 71.975 624.708 71.025 627.525L70.8 628.175C70.7333 628.342 70.6333 628.483 70.5 628.6C70.3833 628.717 70.25 628.775 70.1 628.775C69.9 628.775 69.7667 628.758 69.7 628.725C69.6333 628.692 69.5917 628.592 69.575 628.425C69.4917 627.608 69.425 626.517 69.375 625.15C69.3417 624.8 69.3083 624.225 69.275 623.425C69.1083 620.608 68.9583 618.708 68.825 617.725C68.6917 616.725 68.625 616.167 68.625 616.05C68.625 615.917 68.6917 615.758 68.825 615.575C68.9583 615.392 69.0833 615.3 69.2 615.3C69.4667 615.3 69.6833 615.492 69.85 615.875C69.9333 616.058 70.025 616.792 70.125 618.075C70.225 619.358 70.3083 620.95 70.375 622.85L70.5 626.675C71.4167 623.842 72.3667 621.275 73.35 618.975C74.3333 616.658 75.2333 615.5 76.05 615.5C76.6 615.5 76.975 615.9 77.175 616.7C77.375 617.5 77.475 618.658 77.475 620.175C77.475 620.975 77.4583 622.125 77.425 623.625L77.4 624.775C78.0833 622.392 78.7583 620.392 79.425 618.775C80.1083 617.158 80.7917 616.35 81.475 616.35C83.1917 616.35 84.05 620.15 84.05 627.75C84.05 627.95 83.9833 628.117 83.85 628.25C83.7167 628.4 83.5417 628.475 83.325 628.475ZM89.8756 628.175C88.7589 628.175 87.9339 627.867 87.4006 627.25C86.8673 626.633 86.6006 625.867 86.6006 624.95C86.6006 624.15 86.7423 623.158 87.0256 621.975C87.3256 620.792 87.7423 619.733 88.2756 618.8C88.3089 618.733 88.4423 618.492 88.6756 618.075C88.9256 617.642 89.2006 617.317 89.5006 617.1C89.8006 616.867 90.1173 616.75 90.4506 616.75C90.6006 616.75 90.7339 616.792 90.8506 616.875C90.9839 616.942 91.0506 617.033 91.0506 617.15C91.0506 617.183 91.0006 617.267 90.9006 617.4C90.8173 617.517 90.7506 617.608 90.7006 617.675C90.1339 618.358 89.6756 619.033 89.3256 619.7C88.8589 620.55 88.4923 621.392 88.2256 622.225C87.9756 623.058 87.8506 623.967 87.8506 624.95C87.8506 626.267 88.6506 626.925 90.2506 626.925C91.0006 626.925 91.6923 626.708 92.3256 626.275C92.9756 625.842 93.4923 625.317 93.8756 624.7C94.2589 624.067 94.4506 623.492 94.4506 622.975C94.4506 622.392 94.2589 621.883 93.8756 621.45C93.4923 621.017 92.9673 620.558 92.3006 620.075C91.8673 619.758 91.5506 619.5 91.3506 619.3C91.1506 619.1 91.0506 618.933 91.0506 618.8C91.0506 618.6 91.1923 618.442 91.4756 618.325C91.7589 618.192 92.0923 618.125 92.4756 618.125C92.6923 618.125 92.8339 618.142 92.9006 618.175C92.9673 618.192 93.0006 618.233 93.0006 618.3C93.0006 618.333 92.9673 618.392 92.9006 618.475C92.8506 618.542 92.8256 618.6 92.8256 618.65C92.8256 618.7 92.9923 618.867 93.3256 619.15C93.9923 619.7 94.5506 620.258 95.0006 620.825C95.4506 621.392 95.6756 622.058 95.6756 622.825C95.6756 623.475 95.4339 624.225 94.9506 625.075C94.4673 625.925 93.7839 626.658 92.9006 627.275C92.0173 627.875 91.0089 628.175 89.8756 628.175ZM107.094 618.65C105.561 618.917 104.702 619.067 104.519 619.1L102.894 619.375C102.894 620.242 102.902 621.15 102.919 622.1C102.952 623.05 102.994 623.883 103.044 624.6C103.111 625.567 103.227 626.308 103.394 626.825C103.561 627.342 103.652 627.633 103.669 627.7C103.669 627.867 103.561 628.017 103.344 628.15C103.144 628.3 102.952 628.375 102.769 628.375C102.669 628.375 102.586 628.342 102.519 628.275C102.452 628.225 102.394 628.133 102.344 628C102.244 627.767 102.144 627.333 102.044 626.7C101.961 626.067 101.894 625.367 101.844 624.6C101.794 623.917 101.752 623.125 101.719 622.225C101.702 621.308 101.694 620.425 101.694 619.575C100.761 619.725 99.8023 619.908 98.8189 620.125C97.9356 620.308 97.4106 620.4 97.2439 620.4C97.0439 620.4 96.8523 620.342 96.6689 620.225C96.5023 620.108 96.4189 619.95 96.4189 619.75C96.4189 619.533 96.4939 619.392 96.6439 619.325C96.7939 619.258 97.0439 619.225 97.3939 619.225C97.6439 619.225 98.0106 619.183 98.4939 619.1C98.9773 619 99.2856 618.933 99.4189 618.9C100.536 618.683 101.294 618.542 101.694 618.475C101.694 618.125 101.677 617.667 101.644 617.1C101.611 616.333 101.594 615.75 101.594 615.35C101.594 614.7 101.611 614.2 101.644 613.85C101.694 613.483 101.777 613.158 101.894 612.875C102.027 612.542 102.277 612.375 102.644 612.375C102.794 612.375 102.894 612.4 102.944 612.45C102.994 612.5 103.019 612.592 103.019 612.725C103.019 612.825 102.977 613.117 102.894 613.6C102.811 614.083 102.769 614.725 102.769 615.525C102.769 616.142 102.786 616.833 102.819 617.6L102.844 618.275C103.594 618.158 105.077 617.85 107.294 617.35C107.427 617.317 107.536 617.2 107.619 617C107.719 616.8 107.819 616.7 107.919 616.7C108.102 616.7 108.286 616.808 108.469 617.025C108.669 617.225 108.769 617.433 108.769 617.65C108.769 617.933 108.644 618.15 108.394 618.3C108.161 618.45 107.727 618.567 107.094 618.65ZM110.872 612.725C110.589 612.725 110.297 612.608 109.997 612.375C109.714 612.142 109.572 611.95 109.572 611.8C109.572 611.617 109.656 611.442 109.822 611.275C110.006 611.108 110.189 611.025 110.372 611.025C110.622 611.108 110.831 611.242 110.997 611.425C111.131 611.558 111.281 611.733 111.447 611.95C111.614 612.167 111.697 612.3 111.697 612.35C111.697 612.6 111.422 612.725 110.872 612.725ZM111.622 628.575C111.389 628.558 111.214 628.183 111.097 627.45C110.997 626.717 110.889 625.325 110.772 623.275C110.706 621.925 110.647 620.608 110.597 619.325C110.547 618.025 110.514 617.025 110.497 616.325C110.497 616.142 110.522 616.008 110.572 615.925C110.639 615.825 110.756 615.775 110.922 615.775C111.306 615.775 111.547 615.933 111.647 616.25C111.747 616.567 111.797 617.175 111.797 618.075L111.772 621.025C111.772 622.708 111.822 624.058 111.922 625.075C111.922 625.125 111.997 625.658 112.147 626.675C112.264 627.375 112.322 627.842 112.322 628.075C112.322 628.242 112.247 628.367 112.097 628.45C111.964 628.55 111.806 628.592 111.622 628.575ZM127.017 616C126.15 616.983 125.342 618.392 124.592 620.225C123.842 622.058 123.25 624.042 122.817 626.175C122.767 626.425 122.683 626.925 122.567 627.675L122.442 628.55C122.392 628.817 122.275 629.025 122.092 629.175C121.925 629.325 121.625 629.4 121.192 629.4C121.108 629.4 120.825 628.9 120.342 627.9C119.858 626.883 119.35 625.792 118.817 624.625L117.742 622.275C117.092 620.858 116.55 619.75 116.117 618.95C115.683 618.15 115.367 617.75 115.167 617.75C115.1 617.75 115.042 617.792 114.992 617.875C114.958 617.958 114.917 618 114.867 618C114.783 618 114.708 617.967 114.642 617.9C114.592 617.817 114.567 617.733 114.567 617.65C114.567 617.433 114.683 617.15 114.917 616.8C115.167 616.45 115.408 616.275 115.642 616.275C115.808 616.275 115.933 616.308 116.017 616.375C116.1 616.442 116.175 616.517 116.242 616.6C116.308 616.683 116.358 616.75 116.392 616.8C116.792 617.3 117.483 618.617 118.467 620.75C118.817 621.5 119.683 623.458 121.067 626.625L121.642 627.95C121.642 627.517 121.725 626.817 121.892 625.85C122.258 623.883 122.808 621.933 123.542 620C124.275 618.067 125.133 616.45 126.117 615.15C126.317 614.883 126.475 614.7 126.592 614.6C126.725 614.483 126.892 614.425 127.092 614.425C127.175 614.425 127.308 614.558 127.492 614.825C127.675 615.075 127.767 615.242 127.767 615.325C127.767 615.408 127.65 615.525 127.417 615.675C127.2 615.825 127.067 615.933 127.017 616ZM139.596 627.075C139.596 627.275 139.512 627.508 139.346 627.775C139.179 628.025 139.012 628.15 138.846 628.15C138.562 628.15 138.346 627.975 138.196 627.625C138.046 627.275 137.971 626.867 137.971 626.4C137.971 626 137.996 624.8 138.046 622.8L138.071 621.85C138.071 621.467 137.971 621.192 137.771 621.025C137.021 622.292 136.321 623.392 135.671 624.325C135.021 625.258 134.196 626.142 133.196 626.975C132.196 627.792 131.146 628.2 130.046 628.2C129.512 628.2 129.096 628.033 128.796 627.7C128.512 627.367 128.371 626.933 128.371 626.4C128.371 625.733 128.671 624.825 129.271 623.675C129.871 622.508 130.637 621.333 131.571 620.15C132.504 618.95 133.437 617.967 134.371 617.2C134.987 616.7 135.479 616.367 135.846 616.2C136.212 616.017 136.537 615.925 136.821 615.925C137.087 615.925 137.362 616.008 137.646 616.175C137.929 616.342 138.171 616.575 138.371 616.875C138.571 617.175 138.671 617.517 138.671 617.9C138.671 618.417 138.529 618.908 138.246 619.375L138.671 619.25C138.854 619.25 138.962 619.475 138.996 619.925C139.012 620.192 139.029 620.733 139.046 621.55C139.079 622.367 139.104 623.042 139.121 623.575C139.137 624.125 139.154 624.658 139.171 625.175C139.187 625.692 139.204 626.1 139.221 626.4C139.237 626.517 139.304 626.642 139.421 626.775C139.537 626.892 139.596 626.992 139.596 627.075ZM137.421 620.05C137.621 619.55 137.721 619.008 137.721 618.425C137.721 618.075 137.612 617.775 137.396 617.525C137.196 617.258 136.921 617.125 136.571 617.125C136.154 617.125 135.621 617.408 134.971 617.975C134.221 618.608 133.429 619.458 132.596 620.525C131.762 621.575 131.071 622.617 130.521 623.65C129.971 624.683 129.696 625.5 129.696 626.1C129.696 626.6 129.929 626.85 130.396 626.85C131.296 626.85 132.162 626.517 132.996 625.85C133.829 625.183 134.571 624.392 135.221 623.475C135.887 622.542 136.621 621.4 137.421 620.05ZM151.503 618.65C149.97 618.917 149.111 619.067 148.928 619.1L147.303 619.375C147.303 620.242 147.311 621.15 147.328 622.1C147.361 623.05 147.403 623.883 147.453 624.6C147.52 625.567 147.636 626.308 147.803 626.825C147.97 627.342 148.061 627.633 148.078 627.7C148.078 627.867 147.97 628.017 147.753 628.15C147.553 628.3 147.361 628.375 147.178 628.375C147.078 628.375 146.995 628.342 146.928 628.275C146.861 628.225 146.803 628.133 146.753 628C146.653 627.767 146.553 627.333 146.453 626.7C146.37 626.067 146.303 625.367 146.253 624.6C146.203 623.917 146.161 623.125 146.128 622.225C146.111 621.308 146.103 620.425 146.103 619.575C145.17 619.725 144.211 619.908 143.228 620.125C142.345 620.308 141.82 620.4 141.653 620.4C141.453 620.4 141.261 620.342 141.078 620.225C140.911 620.108 140.828 619.95 140.828 619.75C140.828 619.533 140.903 619.392 141.053 619.325C141.203 619.258 141.453 619.225 141.803 619.225C142.053 619.225 142.42 619.183 142.903 619.1C143.386 619 143.695 618.933 143.828 618.9C144.945 618.683 145.703 618.542 146.103 618.475C146.103 618.125 146.086 617.667 146.053 617.1C146.02 616.333 146.003 615.75 146.003 615.35C146.003 614.7 146.02 614.2 146.053 613.85C146.103 613.483 146.186 613.158 146.303 612.875C146.436 612.542 146.686 612.375 147.053 612.375C147.203 612.375 147.303 612.4 147.353 612.45C147.403 612.5 147.428 612.592 147.428 612.725C147.428 612.825 147.386 613.117 147.303 613.6C147.22 614.083 147.178 614.725 147.178 615.525C147.178 616.142 147.195 616.833 147.228 617.6L147.253 618.275C148.003 618.158 149.486 617.85 151.703 617.35C151.836 617.317 151.945 617.2 152.028 617C152.128 616.8 152.228 616.7 152.328 616.7C152.511 616.7 152.695 616.808 152.878 617.025C153.078 617.225 153.178 617.433 153.178 617.65C153.178 617.933 153.053 618.15 152.803 618.3C152.57 618.45 152.136 618.567 151.503 618.65ZM164.082 622C164.082 622.3 163.857 622.958 163.407 623.975C162.973 624.992 162.307 625.933 161.407 626.8C160.523 627.667 159.432 628.1 158.132 628.1C157.065 628.1 156.173 627.767 155.457 627.1C154.74 626.433 154.382 625.408 154.382 624.025C154.382 622.725 154.682 621.442 155.282 620.175C155.882 618.892 156.665 617.85 157.632 617.05C158.598 616.233 159.598 615.825 160.632 615.825C161.248 615.825 161.765 615.967 162.182 616.25C162.615 616.517 162.832 616.908 162.832 617.425C162.832 618.008 162.498 618.575 161.832 619.125C161.182 619.675 160.332 620.158 159.282 620.575C158.232 620.992 157.148 621.292 156.032 621.475C155.832 622.242 155.732 622.992 155.732 623.725C155.732 624.692 155.957 625.442 156.407 625.975C156.873 626.508 157.532 626.775 158.382 626.775C159.665 626.775 160.707 626.317 161.507 625.4C162.307 624.483 162.973 623.45 163.507 622.3C163.54 622.233 163.598 622.108 163.682 621.925C163.765 621.725 163.84 621.625 163.907 621.625C164.023 621.625 164.082 621.75 164.082 622ZM160.332 616.85C159.698 616.85 159.09 617.058 158.507 617.475C157.923 617.892 157.432 618.392 157.032 618.975C156.648 619.558 156.398 620.075 156.282 620.525C157.048 620.442 157.857 620.225 158.707 619.875C159.557 619.525 160.265 619.142 160.832 618.725C161.415 618.308 161.707 617.967 161.707 617.7C161.707 617.433 161.565 617.225 161.282 617.075C161.015 616.925 160.698 616.85 160.332 616.85ZM175.003 610.9C175.003 611.233 174.987 611.892 174.953 612.875C174.92 613.842 174.903 614.817 174.903 615.8C174.903 617.7 174.945 619.642 175.028 621.625C175.112 623.592 175.178 624.883 175.228 625.5C175.228 625.6 175.237 625.708 175.253 625.825C175.27 625.942 175.287 626.05 175.303 626.15C175.37 626.617 175.403 626.9 175.403 627C175.403 627.167 175.278 627.325 175.028 627.475C174.795 627.625 174.612 627.7 174.478 627.7C174.295 627.7 174.17 627.633 174.103 627.5C174.053 627.35 174.028 627.15 174.028 626.9C174.028 625.983 174.053 625.025 174.103 624.025L174.128 622.625C174.128 622.158 174.12 621.55 174.103 620.8C174.087 620.033 174.062 619.392 174.028 618.875C173.178 621.608 172.212 623.875 171.128 625.675C170.062 627.458 168.903 628.35 167.653 628.35C167.087 628.35 166.603 628.083 166.203 627.55C165.82 627.017 165.628 626.25 165.628 625.25C165.628 623.933 166.07 622.5 166.953 620.95C167.853 619.4 168.87 618.067 170.003 616.95C171.153 615.833 172.003 615.275 172.553 615.275C173.087 615.275 173.353 615.45 173.353 615.8C173.353 616.033 173.27 616.308 173.103 616.625C172.953 616.925 172.778 617.2 172.578 617.45C172.395 617.7 172.287 617.825 172.253 617.825C172.22 617.825 172.178 617.817 172.128 617.8C172.095 617.767 172.078 617.733 172.078 617.7C172.078 617.617 172.12 617.475 172.203 617.275C172.287 617.075 172.328 616.942 172.328 616.875C172.328 616.792 172.32 616.733 172.303 616.7C172.287 616.667 172.237 616.65 172.153 616.65C171.803 616.65 171.17 617.133 170.253 618.1C169.353 619.05 168.545 620.183 167.828 621.5C167.112 622.817 166.753 624.042 166.753 625.175C166.753 625.575 166.837 625.95 167.003 626.3C167.17 626.65 167.445 626.825 167.828 626.825C169.045 626.825 170.17 625.8 171.203 623.75C172.253 621.683 173.162 619.342 173.928 616.725L173.878 614.625C173.828 612.775 173.803 611.792 173.803 611.675C173.803 610.675 173.845 609.958 173.928 609.525C173.962 609.358 173.995 609.242 174.028 609.175C174.078 609.108 174.17 609.075 174.303 609.075C174.47 609.075 174.637 609.133 174.803 609.25C174.97 609.35 175.053 609.492 175.053 609.675L175.003 610.9Z" fill="#936BE8"/>
<path d="M58.3 17.825C57.4333 18.875 56.65 19.6833 55.95 20.25C55.2667 20.8167 54.55 21.1 53.8 21.1C53.1667 21.1 52.6417 20.825 52.225 20.275C51.825 19.725 51.625 19.0917 51.625 18.375C51.625 17.3083 51.9083 15.9583 52.475 14.325C53.0417 12.6917 53.7583 11.275 54.625 10.075C55.4917 8.875 56.3583 8.275 57.225 8.275C57.5917 8.275 57.9083 8.40833 58.175 8.675C58.325 8.825 58.4667 9.025 58.6 9.275C58.7333 9.525 58.8 9.75 58.8 9.95C58.8 10.2333 58.7583 10.5667 58.675 10.95C58.6083 11.3167 58.5333 11.5 58.45 11.5C58.2833 11.5 58.175 11.4083 58.125 11.225C58.075 11.0417 58.0417 10.8083 58.025 10.525C57.975 10.0917 57.925 9.80833 57.875 9.675C57.825 9.525 57.75 9.45 57.65 9.45C56.8667 9.45 56.1083 10 55.375 11.1C54.6417 12.1833 54.0417 13.45 53.575 14.9C53.1083 16.3333 52.875 17.4417 52.875 18.225C52.875 19.325 53.2417 19.875 53.975 19.875C54.5083 19.875 54.9917 19.7417 55.425 19.475C55.875 19.2083 56.3417 18.8333 56.825 18.35C57.725 17.4333 58.425 16.6417 58.925 15.975C58.9583 15.925 59.05 15.8 59.2 15.6C59.3667 15.3833 59.4833 15.275 59.55 15.275C59.75 15.275 59.85 15.35 59.85 15.5C59.85 15.6 59.675 15.9083 59.325 16.425C58.9917 16.9417 58.65 17.4083 58.3 17.825ZM69.2773 11.275C69.1607 11.275 69.044 11.225 68.9273 11.125C68.8273 11.025 68.7107 10.8833 68.5773 10.7C68.4607 10.5333 68.3023 10.3917 68.1023 10.275C67.919 10.1583 67.7273 10.1 67.5273 10.1C67.044 10.1 66.394 10.7417 65.5773 12.025C64.7607 13.2917 63.9607 14.8917 63.1773 16.825C63.194 17.2083 63.219 17.6917 63.2523 18.275C63.3023 18.8583 63.3357 19.2917 63.3523 19.575L63.4273 20.575C63.4273 20.8083 63.3773 21.0083 63.2773 21.175C63.1773 21.3583 62.994 21.45 62.7273 21.45C62.444 21.45 62.2607 21.075 62.1773 20.325C62.094 19.5583 62.044 18.45 62.0273 17C62.0107 16.6333 61.994 16.1083 61.9773 15.425C61.9773 14.7417 61.9607 13.925 61.9273 12.975C61.8773 11.5417 61.8523 10.5167 61.8523 9.9C61.8523 9.51667 62.0857 9.325 62.5523 9.325C62.8357 9.325 63.0023 9.45 63.0523 9.7C63.119 9.93333 63.1523 10.3917 63.1523 11.075V15.05C63.6523 13.7667 64.194 12.6583 64.7773 11.725C65.3607 10.7917 65.9273 10.0833 66.4773 9.6C67.044 9.1 67.544 8.85 67.9773 8.85C68.344 8.85 68.694 8.93333 69.0273 9.1C69.3607 9.26667 69.6273 9.48333 69.8273 9.75C70.0273 10 70.1273 10.2417 70.1273 10.475C70.1273 10.625 70.019 10.8 69.8023 11C69.6023 11.1833 69.4273 11.275 69.2773 11.275ZM81.5289 15C81.5289 15.3 81.3039 15.9583 80.8539 16.975C80.4206 17.9917 79.7539 18.9333 78.8539 19.8C77.9706 20.6667 76.8789 21.1 75.5789 21.1C74.5122 21.1 73.6206 20.7667 72.9039 20.1C72.1872 19.4333 71.8289 18.4083 71.8289 17.025C71.8289 15.725 72.1289 14.4417 72.7289 13.175C73.3289 11.8917 74.1122 10.85 75.0789 10.05C76.0456 9.23333 77.0456 8.825 78.0789 8.825C78.6956 8.825 79.2122 8.96667 79.6289 9.25C80.0622 9.51667 80.2789 9.90833 80.2789 10.425C80.2789 11.0083 79.9456 11.575 79.2789 12.125C78.6289 12.675 77.7789 13.1583 76.7289 13.575C75.6789 13.9917 74.5956 14.2917 73.4789 14.475C73.2789 15.2417 73.1789 15.9917 73.1789 16.725C73.1789 17.6917 73.4039 18.4417 73.8539 18.975C74.3206 19.5083 74.9789 19.775 75.8289 19.775C77.1122 19.775 78.1539 19.3167 78.9539 18.4C79.7539 17.4833 80.4206 16.45 80.9539 15.3C80.9872 15.2333 81.0456 15.1083 81.1289 14.925C81.2122 14.725 81.2872 14.625 81.3539 14.625C81.4706 14.625 81.5289 14.75 81.5289 15ZM77.7789 9.85C77.1456 9.85 76.5372 10.0583 75.9539 10.475C75.3706 10.8917 74.8789 11.3917 74.4789 11.975C74.0956 12.5583 73.8456 13.075 73.7289 13.525C74.4956 13.4417 75.3039 13.225 76.1539 12.875C77.0039 12.525 77.7122 12.1417 78.2789 11.725C78.8622 11.3083 79.1539 10.9667 79.1539 10.7C79.1539 10.4333 79.0122 10.225 78.7289 10.075C78.4622 9.925 78.1456 9.85 77.7789 9.85ZM94.2256 20.075C94.2256 20.275 94.1423 20.5083 93.9756 20.775C93.8089 21.025 93.6423 21.15 93.4756 21.15C93.1923 21.15 92.9756 20.975 92.8256 20.625C92.6756 20.275 92.6006 19.8667 92.6006 19.4C92.6006 19 92.6256 17.8 92.6756 15.8L92.7006 14.85C92.7006 14.4667 92.6006 14.1917 92.4006 14.025C91.6506 15.2917 90.9506 16.3917 90.3006 17.325C89.6506 18.2583 88.8256 19.1417 87.8256 19.975C86.8256 20.7917 85.7756 21.2 84.6756 21.2C84.1423 21.2 83.7256 21.0333 83.4256 20.7C83.1423 20.3667 83.0006 19.9333 83.0006 19.4C83.0006 18.7333 83.3006 17.825 83.9006 16.675C84.5006 15.5083 85.2673 14.3333 86.2006 13.15C87.1339 11.95 88.0673 10.9667 89.0006 10.2C89.6173 9.7 90.1089 9.36667 90.4756 9.2C90.8423 9.01667 91.1673 8.925 91.4506 8.925C91.7173 8.925 91.9923 9.00833 92.2756 9.175C92.5589 9.34167 92.8006 9.575 93.0006 9.875C93.2006 10.175 93.3006 10.5167 93.3006 10.9C93.3006 11.4167 93.1589 11.9083 92.8756 12.375L93.3006 12.25C93.4839 12.25 93.5923 12.475 93.6256 12.925C93.6423 13.1917 93.6589 13.7333 93.6756 14.55C93.7089 15.3667 93.7339 16.0417 93.7506 16.575C93.7673 17.125 93.7839 17.6583 93.8006 18.175C93.8173 18.6917 93.8339 19.1 93.8506 19.4C93.8673 19.5167 93.9339 19.6417 94.0506 19.775C94.1673 19.8917 94.2256 19.9917 94.2256 20.075ZM92.0506 13.05C92.2506 12.55 92.3506 12.0083 92.3506 11.425C92.3506 11.075 92.2423 10.775 92.0256 10.525C91.8256 10.2583 91.5506 10.125 91.2006 10.125C90.7839 10.125 90.2506 10.4083 89.6006 10.975C88.8506 11.6083 88.0589 12.4583 87.2256 13.525C86.3923 14.575 85.7006 15.6167 85.1506 16.65C84.6006 17.6833 84.3256 18.5 84.3256 19.1C84.3256 19.6 84.5589 19.85 85.0256 19.85C85.9256 19.85 86.7923 19.5167 87.6256 18.85C88.4589 18.1833 89.2006 17.3917 89.8506 16.475C90.5173 15.5417 91.2506 14.4 92.0506 13.05ZM106.133 11.65C104.6 11.9167 103.741 12.0667 103.558 12.1L101.933 12.375C101.933 13.2417 101.941 14.15 101.958 15.1C101.991 16.05 102.033 16.8833 102.083 17.6C102.15 18.5667 102.266 19.3083 102.433 19.825C102.6 20.3417 102.691 20.6333 102.708 20.7C102.708 20.8667 102.6 21.0167 102.383 21.15C102.183 21.3 101.991 21.375 101.808 21.375C101.708 21.375 101.625 21.3417 101.558 21.275C101.491 21.225 101.433 21.1333 101.383 21C101.283 20.7667 101.183 20.3333 101.083 19.7C101 19.0667 100.933 18.3667 100.883 17.6C100.833 16.9167 100.791 16.125 100.758 15.225C100.741 14.3083 100.733 13.425 100.733 12.575C99.7997 12.725 98.8413 12.9083 97.858 13.125C96.9747 13.3083 96.4497 13.4 96.283 13.4C96.083 13.4 95.8913 13.3417 95.708 13.225C95.5413 13.1083 95.458 12.95 95.458 12.75C95.458 12.5333 95.533 12.3917 95.683 12.325C95.833 12.2583 96.083 12.225 96.433 12.225C96.683 12.225 97.0497 12.1833 97.533 12.1C98.0163 12 98.3247 11.9333 98.458 11.9C99.5747 11.6833 100.333 11.5417 100.733 11.475C100.733 11.125 100.716 10.6667 100.683 10.1C100.65 9.33333 100.633 8.75 100.633 8.35C100.633 7.7 100.65 7.2 100.683 6.85C100.733 6.48333 100.816 6.15833 100.933 5.875C101.066 5.54167 101.316 5.375 101.683 5.375C101.833 5.375 101.933 5.4 101.983 5.45C102.033 5.5 102.058 5.59167 102.058 5.725C102.058 5.825 102.016 6.11667 101.933 6.6C101.85 7.08333 101.808 7.725 101.808 8.525C101.808 9.14167 101.825 9.83333 101.858 10.6L101.883 11.275C102.633 11.1583 104.116 10.85 106.333 10.35C106.466 10.3167 106.575 10.2 106.658 10C106.758 9.8 106.858 9.7 106.958 9.7C107.141 9.7 107.325 9.80833 107.508 10.025C107.708 10.225 107.808 10.4333 107.808 10.65C107.808 10.9333 107.683 11.15 107.433 11.3C107.2 11.45 106.766 11.5667 106.133 11.65ZM109.912 5.725C109.628 5.725 109.337 5.60833 109.037 5.375C108.753 5.14167 108.612 4.95 108.612 4.8C108.612 4.61667 108.695 4.44167 108.862 4.275C109.045 4.10833 109.228 4.025 109.412 4.025C109.662 4.10833 109.87 4.24167 110.037 4.425C110.17 4.55833 110.32 4.73333 110.487 4.95C110.653 5.16667 110.737 5.3 110.737 5.35C110.737 5.6 110.462 5.725 109.912 5.725ZM110.662 21.575C110.428 21.5583 110.253 21.1833 110.137 20.45C110.037 19.7167 109.928 18.325 109.812 16.275C109.745 14.925 109.687 13.6083 109.637 12.325C109.587 11.025 109.553 10.025 109.537 9.325C109.537 9.14167 109.562 9.00833 109.612 8.925C109.678 8.825 109.795 8.775 109.962 8.775C110.345 8.775 110.587 8.93333 110.687 9.25C110.787 9.56667 110.837 10.175 110.837 11.075L110.812 14.025C110.812 15.7083 110.862 17.0583 110.962 18.075C110.962 18.125 111.037 18.6583 111.187 19.675C111.303 20.375 111.362 20.8417 111.362 21.075C111.362 21.2417 111.287 21.3667 111.137 21.45C111.003 21.55 110.845 21.5917 110.662 21.575ZM126.056 9C125.189 9.98333 124.381 11.3917 123.631 13.225C122.881 15.0583 122.289 17.0417 121.856 19.175C121.806 19.425 121.723 19.925 121.606 20.675L121.481 21.55C121.431 21.8167 121.314 22.025 121.131 22.175C120.964 22.325 120.664 22.4 120.231 22.4C120.148 22.4 119.864 21.9 119.381 20.9C118.898 19.8833 118.389 18.7917 117.856 17.625L116.781 15.275C116.131 13.8583 115.589 12.75 115.156 11.95C114.723 11.15 114.406 10.75 114.206 10.75C114.139 10.75 114.081 10.7917 114.031 10.875C113.998 10.9583 113.956 11 113.906 11C113.823 11 113.748 10.9667 113.681 10.9C113.631 10.8167 113.606 10.7333 113.606 10.65C113.606 10.4333 113.723 10.15 113.956 9.8C114.206 9.45 114.448 9.275 114.681 9.275C114.848 9.275 114.973 9.30833 115.056 9.375C115.139 9.44167 115.214 9.51667 115.281 9.6C115.348 9.68333 115.398 9.75 115.431 9.8C115.831 10.3 116.523 11.6167 117.506 13.75C117.856 14.5 118.723 16.4583 120.106 19.625L120.681 20.95C120.681 20.5167 120.764 19.8167 120.931 18.85C121.298 16.8833 121.848 14.9333 122.581 13C123.314 11.0667 124.173 9.45 125.156 8.15C125.356 7.88333 125.514 7.7 125.631 7.6C125.764 7.48333 125.931 7.425 126.131 7.425C126.214 7.425 126.348 7.55833 126.531 7.825C126.714 8.075 126.806 8.24167 126.806 8.325C126.806 8.40833 126.689 8.525 126.456 8.675C126.239 8.825 126.106 8.93333 126.056 9ZM137.535 15C137.535 15.3 137.31 15.9583 136.86 16.975C136.426 17.9917 135.76 18.9333 134.86 19.8C133.976 20.6667 132.885 21.1 131.585 21.1C130.518 21.1 129.626 20.7667 128.91 20.1C128.193 19.4333 127.835 18.4083 127.835 17.025C127.835 15.725 128.135 14.4417 128.735 13.175C129.335 11.8917 130.118 10.85 131.085 10.05C132.051 9.23333 133.051 8.825 134.085 8.825C134.701 8.825 135.218 8.96667 135.635 9.25C136.068 9.51667 136.285 9.90833 136.285 10.425C136.285 11.0083 135.951 11.575 135.285 12.125C134.635 12.675 133.785 13.1583 132.735 13.575C131.685 13.9917 130.601 14.2917 129.485 14.475C129.285 15.2417 129.185 15.9917 129.185 16.725C129.185 17.6917 129.41 18.4417 129.86 18.975C130.326 19.5083 130.985 19.775 131.835 19.775C133.118 19.775 134.16 19.3167 134.96 18.4C135.76 17.4833 136.426 16.45 136.96 15.3C136.993 15.2333 137.051 15.1083 137.135 14.925C137.218 14.725 137.293 14.625 137.36 14.625C137.476 14.625 137.535 14.75 137.535 15ZM133.785 9.85C133.151 9.85 132.543 10.0583 131.96 10.475C131.376 10.8917 130.885 11.3917 130.485 11.975C130.101 12.5583 129.851 13.075 129.735 13.525C130.501 13.4417 131.31 13.225 132.16 12.875C133.01 12.525 133.718 12.1417 134.285 11.725C134.868 11.3083 135.16 10.9667 135.16 10.7C135.16 10.4333 135.018 10.225 134.735 10.075C134.468 9.925 134.151 9.85 133.785 9.85Z" fill="#936BE8"/>
<path d="M424.025 49.85C423.308 49.85 422.825 49.7833 422.575 49.65C422.325 49.5167 422.2 49.3333 422.2 49.1C422.2 48.95 422.392 48.6917 422.775 48.325C423.158 47.9417 423.417 47.75 423.55 47.75C423.75 47.75 423.85 47.7917 423.85 47.875C423.85 47.9417 423.808 48.0083 423.725 48.075C423.642 48.1417 423.6 48.2 423.6 48.25C423.6 48.3167 423.7 48.3833 423.9 48.45C424.117 48.5167 424.375 48.55 424.675 48.55C425.375 48.55 426.075 48.425 426.775 48.175C427.492 47.9083 428.075 47.5667 428.525 47.15C428.975 46.7333 429.2 46.2917 429.2 45.825C429.2 45.375 429.058 45.0167 428.775 44.75C428.492 44.4833 428.133 44.2917 427.7 44.175C427.283 44.0417 426.575 43.8583 425.575 43.625C424.475 43.375 423.617 43.1583 423 42.975C422.4 42.775 421.917 42.5333 421.55 42.25C421.183 41.95 421 41.575 421 41.125C421 40.325 421.392 39.5917 422.175 38.925C422.958 38.2583 423.858 37.7333 424.875 37.35C425.892 36.9667 426.675 36.775 427.225 36.775C427.792 36.775 428.075 36.9417 428.075 37.275C428.075 37.475 428.008 37.7 427.875 37.95C427.742 38.1833 427.542 38.3 427.275 38.3C427.175 38.3 427.067 38.2667 426.95 38.2C426.833 38.1167 426.717 38.075 426.6 38.075C426.267 38.075 425.742 38.1833 425.025 38.4C424.308 38.6167 423.658 38.9417 423.075 39.375C422.492 39.8083 422.2 40.3333 422.2 40.95C422.2 41.35 422.425 41.65 422.875 41.85C423.342 42.0333 424.2 42.2667 425.45 42.55C425.6 42.6 425.75 42.6417 425.9 42.675C426.05 42.6917 426.183 42.7167 426.3 42.75C427.583 43.05 428.567 43.3917 429.25 43.775C429.933 44.1583 430.275 44.7333 430.275 45.5C430.275 46.2333 429.975 46.9417 429.375 47.625C428.792 48.2917 428.017 48.825 427.05 49.225C426.083 49.6417 425.075 49.85 424.025 49.85ZM442.033 43C442.033 43.3 441.808 43.9583 441.358 44.975C440.924 45.9917 440.258 46.9333 439.358 47.8C438.474 48.6667 437.383 49.1 436.083 49.1C435.016 49.1 434.124 48.7667 433.408 48.1C432.691 47.4333 432.333 46.4083 432.333 45.025C432.333 43.725 432.633 42.4417 433.233 41.175C433.833 39.8917 434.616 38.85 435.583 38.05C436.549 37.2333 437.549 36.825 438.583 36.825C439.199 36.825 439.716 36.9667 440.133 37.25C440.566 37.5167 440.783 37.9083 440.783 38.425C440.783 39.0083 440.449 39.575 439.783 40.125C439.133 40.675 438.283 41.1583 437.233 41.575C436.183 41.9917 435.099 42.2917 433.983 42.475C433.783 43.2417 433.683 43.9917 433.683 44.725C433.683 45.6917 433.908 46.4417 434.358 46.975C434.824 47.5083 435.483 47.775 436.333 47.775C437.616 47.775 438.658 47.3167 439.458 46.4C440.258 45.4833 440.924 44.45 441.458 43.3C441.491 43.2333 441.549 43.1083 441.633 42.925C441.716 42.725 441.791 42.625 441.858 42.625C441.974 42.625 442.033 42.75 442.033 43ZM438.283 37.85C437.649 37.85 437.041 38.0583 436.458 38.475C435.874 38.8917 435.383 39.3917 434.983 39.975C434.599 40.5583 434.349 41.075 434.233 41.525C434.999 41.4417 435.808 41.225 436.658 40.875C437.508 40.525 438.216 40.1417 438.783 39.725C439.366 39.3083 439.658 38.9667 439.658 38.7C439.658 38.4333 439.516 38.225 439.233 38.075C438.966 37.925 438.649 37.85 438.283 37.85ZM445.379 48.875C445.179 48.875 444.988 48.6417 444.804 48.175C444.638 47.6917 444.554 46.9667 444.554 46C444.571 44.1167 444.596 41.8417 444.629 39.175C444.679 36.5083 444.721 34.5 444.754 33.15C444.771 32.6667 444.854 32.2167 445.004 31.8C445.171 31.3833 445.454 31.175 445.854 31.175C445.988 31.175 446.071 31.25 446.104 31.4C446.154 31.5333 446.179 31.8 446.179 32.2C446.179 32.2167 446.171 32.275 446.154 32.375C446.154 32.4583 446.154 32.6167 446.154 32.85C445.854 37.2333 445.704 41.5083 445.704 45.675C445.704 46.2083 445.821 46.775 446.054 47.375C446.304 47.975 446.429 48.2917 446.429 48.325C446.429 48.4917 446.321 48.625 446.104 48.725C445.888 48.825 445.646 48.875 445.379 48.875ZM458.509 34.375C458.393 34.375 458.301 34.325 458.234 34.225C458.184 34.1083 458.134 33.9583 458.084 33.775C457.901 33.2083 457.618 32.7333 457.234 32.35C456.868 31.95 456.468 31.75 456.034 31.75C454.868 31.75 454.026 32.5417 453.509 34.125C453.009 35.6917 452.759 37.5333 452.759 39.65C453.259 39.6167 453.818 39.5417 454.434 39.425C455.068 39.2917 455.484 39.2083 455.684 39.175C456.868 38.925 457.651 38.8 458.034 38.8C458.368 38.8 458.534 38.95 458.534 39.25C458.534 39.4833 458.484 39.7333 458.384 40C458.284 40.2667 458.134 40.4 457.934 40.4C457.768 40.4 457.601 40.3667 457.434 40.3C457.201 40.2 456.884 40.15 456.484 40.15C456.218 40.15 455.668 40.2333 454.834 40.4L452.834 40.7C452.834 41.1167 452.884 42.275 452.984 44.175C453.151 47.1083 453.234 49.45 453.234 51.2C453.234 51.5167 453.201 51.7333 453.134 51.85C453.068 51.9833 452.934 52.05 452.734 52.05C452.501 52.05 452.326 51.9167 452.209 51.65C452.093 51.3833 452.034 51.0833 452.034 50.75C452.034 48.8333 451.909 45.825 451.659 41.725L451.609 40.925C451.476 40.9417 451.043 41.0167 450.309 41.15C449.593 41.2833 449.068 41.35 448.734 41.35C448.551 41.35 448.393 41.3083 448.259 41.225C448.143 41.1417 448.084 41.0167 448.084 40.85C448.084 40.4333 448.234 40.2167 448.534 40.2C448.968 40.1833 449.493 40.15 450.109 40.1C450.726 40.0333 451.201 39.9667 451.534 39.9C451.534 37.1667 451.901 34.95 452.634 33.25C453.384 31.5333 454.493 30.675 455.959 30.675C456.493 30.675 456.984 30.8083 457.434 31.075C457.901 31.3417 458.268 31.6667 458.534 32.05C458.818 32.4333 458.959 32.7833 458.959 33.1C458.959 33.3 458.909 33.5667 458.809 33.9C458.726 34.2167 458.626 34.375 458.509 34.375ZM463.982 43.375L462.307 43.575C461.907 43.625 461.532 43.6667 461.182 43.7C460.832 43.7167 460.407 43.725 459.907 43.725C459.691 43.725 459.499 43.6833 459.332 43.6C459.166 43.5167 459.082 43.375 459.082 43.175C459.082 42.9583 459.157 42.8167 459.307 42.75C459.457 42.6833 459.707 42.65 460.057 42.65C460.691 42.65 461.132 42.65 461.382 42.65C461.649 42.6333 461.882 42.6 462.082 42.55C462.149 42.5333 462.341 42.5 462.657 42.45C462.974 42.3833 463.482 42.3 464.182 42.2C464.316 42.1833 464.424 42.075 464.507 41.875C464.607 41.675 464.707 41.575 464.807 41.575C464.991 41.575 465.174 41.6833 465.357 41.9C465.557 42.1 465.657 42.3083 465.657 42.525C465.657 42.8083 465.541 43.0083 465.307 43.125C465.074 43.225 464.632 43.3083 463.982 43.375ZM470.879 49.175C469.762 49.175 468.937 48.8667 468.404 48.25C467.87 47.6333 467.604 46.8667 467.604 45.95C467.604 45.15 467.745 44.1583 468.029 42.975C468.329 41.7917 468.745 40.7333 469.279 39.8C469.312 39.7333 469.445 39.4917 469.679 39.075C469.929 38.6417 470.204 38.3167 470.504 38.1C470.804 37.8667 471.12 37.75 471.454 37.75C471.604 37.75 471.737 37.7917 471.854 37.875C471.987 37.9417 472.054 38.0333 472.054 38.15C472.054 38.1833 472.004 38.2667 471.904 38.4C471.82 38.5167 471.754 38.6083 471.704 38.675C471.137 39.3583 470.679 40.0333 470.329 40.7C469.862 41.55 469.495 42.3917 469.229 43.225C468.979 44.0583 468.854 44.9667 468.854 45.95C468.854 47.2667 469.654 47.925 471.254 47.925C472.004 47.925 472.695 47.7083 473.329 47.275C473.979 46.8417 474.495 46.3167 474.879 45.7C475.262 45.0667 475.454 44.4917 475.454 43.975C475.454 43.3917 475.262 42.8833 474.879 42.45C474.495 42.0167 473.97 41.5583 473.304 41.075C472.87 40.7583 472.554 40.5 472.354 40.3C472.154 40.1 472.054 39.9333 472.054 39.8C472.054 39.6 472.195 39.4417 472.479 39.325C472.762 39.1917 473.095 39.125 473.479 39.125C473.695 39.125 473.837 39.1417 473.904 39.175C473.97 39.1917 474.004 39.2333 474.004 39.3C474.004 39.3333 473.97 39.3917 473.904 39.475C473.854 39.5417 473.829 39.6 473.829 39.65C473.829 39.7 473.995 39.8667 474.329 40.15C474.995 40.7 475.554 41.2583 476.004 41.825C476.454 42.3917 476.679 43.0583 476.679 43.825C476.679 44.475 476.437 45.225 475.954 46.075C475.47 46.925 474.787 47.6583 473.904 48.275C473.02 48.875 472.012 49.175 470.879 49.175ZM486.422 39.275C486.305 39.275 486.189 39.225 486.072 39.125C485.972 39.025 485.855 38.8833 485.722 38.7C485.605 38.5333 485.447 38.3917 485.247 38.275C485.064 38.1583 484.872 38.1 484.672 38.1C484.189 38.1 483.539 38.7417 482.722 40.025C481.905 41.2917 481.105 42.8917 480.322 44.825C480.339 45.2083 480.364 45.6917 480.397 46.275C480.447 46.8583 480.48 47.2917 480.497 47.575L480.572 48.575C480.572 48.8083 480.522 49.0083 480.422 49.175C480.322 49.3583 480.139 49.45 479.872 49.45C479.589 49.45 479.405 49.075 479.322 48.325C479.239 47.5583 479.189 46.45 479.172 45C479.155 44.6333 479.139 44.1083 479.122 43.425C479.122 42.7417 479.105 41.925 479.072 40.975C479.022 39.5417 478.997 38.5167 478.997 37.9C478.997 37.5167 479.23 37.325 479.697 37.325C479.98 37.325 480.147 37.45 480.197 37.7C480.264 37.9333 480.297 38.3917 480.297 39.075V43.05C480.797 41.7667 481.339 40.6583 481.922 39.725C482.505 38.7917 483.072 38.0833 483.622 37.6C484.189 37.1 484.689 36.85 485.122 36.85C485.489 36.85 485.839 36.9333 486.172 37.1C486.505 37.2667 486.772 37.4833 486.972 37.75C487.172 38 487.272 38.2417 487.272 38.475C487.272 38.625 487.164 38.8 486.947 39C486.747 39.1833 486.572 39.275 486.422 39.275ZM489.873 33.725C489.59 33.725 489.298 33.6083 488.998 33.375C488.715 33.1417 488.573 32.95 488.573 32.8C488.573 32.6167 488.657 32.4417 488.823 32.275C489.007 32.1083 489.19 32.025 489.373 32.025C489.623 32.1083 489.832 32.2417 489.998 32.425C490.132 32.5583 490.282 32.7333 490.448 32.95C490.615 33.1667 490.698 33.3 490.698 33.35C490.698 33.6 490.423 33.725 489.873 33.725ZM490.623 49.575C490.39 49.5583 490.215 49.1833 490.098 48.45C489.998 47.7167 489.89 46.325 489.773 44.275C489.707 42.925 489.648 41.6083 489.598 40.325C489.548 39.025 489.515 38.025 489.498 37.325C489.498 37.1417 489.523 37.0083 489.573 36.925C489.64 36.825 489.757 36.775 489.923 36.775C490.307 36.775 490.548 36.9333 490.648 37.25C490.748 37.5667 490.798 38.175 490.798 39.075L490.773 42.025C490.773 43.7083 490.823 45.0583 490.923 46.075C490.923 46.125 490.998 46.6583 491.148 47.675C491.265 48.375 491.323 48.8417 491.323 49.075C491.323 49.2417 491.248 49.3667 491.098 49.45C490.965 49.55 490.807 49.5917 490.623 49.575ZM504.118 43C504.118 43.3 503.893 43.9583 503.443 44.975C503.009 45.9917 502.343 46.9333 501.443 47.8C500.559 48.6667 499.468 49.1 498.168 49.1C497.101 49.1 496.209 48.7667 495.493 48.1C494.776 47.4333 494.418 46.4083 494.418 45.025C494.418 43.725 494.718 42.4417 495.318 41.175C495.918 39.8917 496.701 38.85 497.668 38.05C498.634 37.2333 499.634 36.825 500.668 36.825C501.284 36.825 501.801 36.9667 502.218 37.25C502.651 37.5167 502.868 37.9083 502.868 38.425C502.868 39.0083 502.534 39.575 501.868 40.125C501.218 40.675 500.368 41.1583 499.318 41.575C498.268 41.9917 497.184 42.2917 496.068 42.475C495.868 43.2417 495.768 43.9917 495.768 44.725C495.768 45.6917 495.993 46.4417 496.443 46.975C496.909 47.5083 497.568 47.775 498.418 47.775C499.701 47.775 500.743 47.3167 501.543 46.4C502.343 45.4833 503.009 44.45 503.543 43.3C503.576 43.2333 503.634 43.1083 503.718 42.925C503.801 42.725 503.876 42.625 503.943 42.625C504.059 42.625 504.118 42.75 504.118 43ZM500.368 37.85C499.734 37.85 499.126 38.0583 498.543 38.475C497.959 38.8917 497.468 39.3917 497.068 39.975C496.684 40.5583 496.434 41.075 496.318 41.525C497.084 41.4417 497.893 41.225 498.743 40.875C499.593 40.525 500.301 40.1417 500.868 39.725C501.451 39.3083 501.743 38.9667 501.743 38.7C501.743 38.4333 501.601 38.225 501.318 38.075C501.051 37.925 500.734 37.85 500.368 37.85ZM513.814 49.9C513.648 49.9 513.506 49.8583 513.389 49.775C513.273 49.7083 513.214 49.6083 513.214 49.475C513.214 48.7917 513.264 47.7333 513.364 46.3C513.464 44.7667 513.514 43.4917 513.514 42.475C513.514 41.4917 513.481 40.6917 513.414 40.075C513.364 39.4417 513.231 39.125 513.014 39.125C512.448 39.125 511.823 39.8333 511.139 41.25C510.473 42.65 509.706 44.5 508.839 46.8L508.464 47.8C508.398 47.9667 508.281 48.1 508.114 48.2C507.964 48.3 507.806 48.35 507.639 48.35C507.439 48.35 507.306 48.3333 507.239 48.3C507.173 48.2667 507.131 48.1667 507.114 48L506.914 45.95L506.539 42.35C506.423 40.9167 506.281 39.6667 506.114 38.6C506.064 38.35 506.039 38.1583 506.039 38.025C506.039 37.775 506.148 37.575 506.364 37.425C506.581 37.2583 506.831 37.175 507.114 37.175C507.281 37.175 507.398 37.575 507.464 38.375C507.548 39.175 507.631 40.4667 507.714 42.25L507.814 43.575C507.948 45.2583 508.023 46.325 508.039 46.775C508.089 46.675 508.131 46.5667 508.164 46.45C508.214 46.3167 508.273 46.175 508.339 46.025C509.239 43.6917 510.081 41.75 510.864 40.2C511.664 38.6333 512.431 37.85 513.164 37.85C513.681 37.85 514.031 38.2917 514.214 39.175C514.414 40.0417 514.539 41.1583 514.589 42.525C514.639 44.0417 514.664 46.2583 514.664 49.175C514.664 49.375 514.581 49.5417 514.414 49.675C514.248 49.825 514.048 49.9 513.814 49.9ZM526.988 39.65C525.455 39.9167 524.597 40.0667 524.413 40.1L522.788 40.375C522.788 41.2417 522.797 42.15 522.813 43.1C522.847 44.05 522.888 44.8833 522.938 45.6C523.005 46.5667 523.122 47.3083 523.288 47.825C523.455 48.3417 523.547 48.6333 523.563 48.7C523.563 48.8667 523.455 49.0167 523.238 49.15C523.038 49.3 522.847 49.375 522.663 49.375C522.563 49.375 522.48 49.3417 522.413 49.275C522.347 49.225 522.288 49.1333 522.238 49C522.138 48.7667 522.038 48.3333 521.938 47.7C521.855 47.0667 521.788 46.3667 521.738 45.6C521.688 44.9167 521.647 44.125 521.613 43.225C521.597 42.3083 521.588 41.425 521.588 40.575C520.655 40.725 519.697 40.9083 518.713 41.125C517.83 41.3083 517.305 41.4 517.138 41.4C516.938 41.4 516.747 41.3417 516.563 41.225C516.397 41.1083 516.313 40.95 516.313 40.75C516.313 40.5333 516.388 40.3917 516.538 40.325C516.688 40.2583 516.938 40.225 517.288 40.225C517.538 40.225 517.905 40.1833 518.388 40.1C518.872 40 519.18 39.9333 519.313 39.9C520.43 39.6833 521.188 39.5417 521.588 39.475C521.588 39.125 521.572 38.6667 521.538 38.1C521.505 37.3333 521.488 36.75 521.488 36.35C521.488 35.7 521.505 35.2 521.538 34.85C521.588 34.4833 521.672 34.1583 521.788 33.875C521.922 33.5417 522.172 33.375 522.538 33.375C522.688 33.375 522.788 33.4 522.838 33.45C522.888 33.5 522.913 33.5917 522.913 33.725C522.913 33.825 522.872 34.1167 522.788 34.6C522.705 35.0833 522.663 35.725 522.663 36.525C522.663 37.1417 522.68 37.8333 522.713 38.6L522.738 39.275C523.488 39.1583 524.972 38.85 527.188 38.35C527.322 38.3167 527.43 38.2 527.513 38C527.613 37.8 527.713 37.7 527.813 37.7C527.997 37.7 528.18 37.8083 528.363 38.025C528.563 38.225 528.663 38.4333 528.663 38.65C528.663 38.9333 528.538 39.15 528.288 39.3C528.055 39.45 527.622 39.5667 526.988 39.65ZM539.567 43C539.567 43.3 539.342 43.9583 538.892 44.975C538.459 45.9917 537.792 46.9333 536.892 47.8C536.009 48.6667 534.917 49.1 533.617 49.1C532.55 49.1 531.659 48.7667 530.942 48.1C530.225 47.4333 529.867 46.4083 529.867 45.025C529.867 43.725 530.167 42.4417 530.767 41.175C531.367 39.8917 532.15 38.85 533.117 38.05C534.084 37.2333 535.084 36.825 536.117 36.825C536.734 36.825 537.25 36.9667 537.667 37.25C538.1 37.5167 538.317 37.9083 538.317 38.425C538.317 39.0083 537.984 39.575 537.317 40.125C536.667 40.675 535.817 41.1583 534.767 41.575C533.717 41.9917 532.634 42.2917 531.517 42.475C531.317 43.2417 531.217 43.9917 531.217 44.725C531.217 45.6917 531.442 46.4417 531.892 46.975C532.359 47.5083 533.017 47.775 533.867 47.775C535.15 47.775 536.192 47.3167 536.992 46.4C537.792 45.4833 538.459 44.45 538.992 43.3C539.025 43.2333 539.084 43.1083 539.167 42.925C539.25 42.725 539.325 42.625 539.392 42.625C539.509 42.625 539.567 42.75 539.567 43ZM535.817 37.85C535.184 37.85 534.575 38.0583 533.992 38.475C533.409 38.8917 532.917 39.3917 532.517 39.975C532.134 40.5583 531.884 41.075 531.767 41.525C532.534 41.4417 533.342 41.225 534.192 40.875C535.042 40.525 535.75 40.1417 536.317 39.725C536.9 39.3083 537.192 38.9667 537.192 38.7C537.192 38.4333 537.05 38.225 536.767 38.075C536.5 37.925 536.184 37.85 535.817 37.85ZM550.489 31.9C550.489 32.2333 550.472 32.8917 550.439 33.875C550.405 34.8417 550.389 35.8167 550.389 36.8C550.389 38.7 550.43 40.6417 550.514 42.625C550.597 44.5917 550.664 45.8833 550.714 46.5C550.714 46.6 550.722 46.7083 550.739 46.825C550.755 46.9417 550.772 47.05 550.789 47.15C550.855 47.6167 550.889 47.9 550.889 48C550.889 48.1667 550.764 48.325 550.514 48.475C550.28 48.625 550.097 48.7 549.964 48.7C549.78 48.7 549.655 48.6333 549.589 48.5C549.539 48.35 549.514 48.15 549.514 47.9C549.514 46.9833 549.539 46.025 549.589 45.025L549.614 43.625C549.614 43.1583 549.605 42.55 549.589 41.8C549.572 41.0333 549.547 40.3917 549.514 39.875C548.664 42.6083 547.697 44.875 546.614 46.675C545.547 48.4583 544.389 49.35 543.139 49.35C542.572 49.35 542.089 49.0833 541.689 48.55C541.305 48.0167 541.114 47.25 541.114 46.25C541.114 44.9333 541.555 43.5 542.439 41.95C543.339 40.4 544.355 39.0667 545.489 37.95C546.639 36.8333 547.489 36.275 548.039 36.275C548.572 36.275 548.839 36.45 548.839 36.8C548.839 37.0333 548.755 37.3083 548.589 37.625C548.439 37.925 548.264 38.2 548.064 38.45C547.88 38.7 547.772 38.825 547.739 38.825C547.705 38.825 547.664 38.8167 547.614 38.8C547.58 38.7667 547.564 38.7333 547.564 38.7C547.564 38.6167 547.605 38.475 547.689 38.275C547.772 38.075 547.814 37.9417 547.814 37.875C547.814 37.7917 547.805 37.7333 547.789 37.7C547.772 37.6667 547.722 37.65 547.639 37.65C547.289 37.65 546.655 38.1333 545.739 39.1C544.839 40.05 544.03 41.1833 543.314 42.5C542.597 43.8167 542.239 45.0417 542.239 46.175C542.239 46.575 542.322 46.95 542.489 47.3C542.655 47.65 542.93 47.825 543.314 47.825C544.53 47.825 545.655 46.8 546.689 44.75C547.739 42.6833 548.647 40.3417 549.414 37.725L549.364 35.625C549.314 33.775 549.289 32.7917 549.289 32.675C549.289 31.675 549.33 30.9583 549.414 30.525C549.447 30.3583 549.48 30.2417 549.514 30.175C549.564 30.1083 549.655 30.075 549.789 30.075C549.955 30.075 550.122 30.1333 550.289 30.25C550.455 30.35 550.539 30.4917 550.539 30.675L550.489 31.9Z" fill="#936BE8"/>
<circle cx="326" cy="309" r="183" fill="#D9D9D9"/>
<path d="M4.025 287.85C3.30833 287.85 2.825 287.783 2.575 287.65C2.325 287.517 2.2 287.333 2.2 287.1C2.2 286.95 2.39167 286.692 2.775 286.325C3.15833 285.942 3.41667 285.75 3.55 285.75C3.75 285.75 3.85 285.792 3.85 285.875C3.85 285.942 3.80833 286.008 3.725 286.075C3.64167 286.142 3.6 286.2 3.6 286.25C3.6 286.317 3.7 286.383 3.9 286.45C4.11667 286.517 4.375 286.55 4.675 286.55C5.375 286.55 6.075 286.425 6.775 286.175C7.49167 285.908 8.075 285.567 8.525 285.15C8.975 284.733 9.2 284.292 9.2 283.825C9.2 283.375 9.05833 283.017 8.775 282.75C8.49167 282.483 8.13333 282.292 7.7 282.175C7.28333 282.042 6.575 281.858 5.575 281.625C4.475 281.375 3.61667 281.158 3 280.975C2.4 280.775 1.91667 280.533 1.55 280.25C1.18333 279.95 1 279.575 1 279.125C1 278.325 1.39167 277.592 2.175 276.925C2.95833 276.258 3.85833 275.733 4.875 275.35C5.89167 274.967 6.675 274.775 7.225 274.775C7.79167 274.775 8.075 274.942 8.075 275.275C8.075 275.475 8.00833 275.7 7.875 275.95C7.74167 276.183 7.54167 276.3 7.275 276.3C7.175 276.3 7.06667 276.267 6.95 276.2C6.83333 276.117 6.71667 276.075 6.6 276.075C6.26667 276.075 5.74167 276.183 5.025 276.4C4.30833 276.617 3.65833 276.942 3.075 277.375C2.49167 277.808 2.2 278.333 2.2 278.95C2.2 279.35 2.425 279.65 2.875 279.85C3.34167 280.033 4.2 280.267 5.45 280.55C5.6 280.6 5.75 280.642 5.9 280.675C6.05 280.692 6.18333 280.717 6.3 280.75C7.58333 281.05 8.56667 281.392 9.25 281.775C9.93333 282.158 10.275 282.733 10.275 283.5C10.275 284.233 9.975 284.942 9.375 285.625C8.79167 286.292 8.01667 286.825 7.05 287.225C6.08333 287.642 5.075 287.85 4.025 287.85ZM15.2828 287.175C14.1661 287.175 13.3411 286.867 12.8078 286.25C12.2745 285.633 12.0078 284.867 12.0078 283.95C12.0078 283.15 12.1495 282.158 12.4328 280.975C12.7328 279.792 13.1495 278.733 13.6828 277.8C13.7161 277.733 13.8495 277.492 14.0828 277.075C14.3328 276.642 14.6078 276.317 14.9078 276.1C15.2078 275.867 15.5245 275.75 15.8578 275.75C16.0078 275.75 16.1411 275.792 16.2578 275.875C16.3911 275.942 16.4578 276.033 16.4578 276.15C16.4578 276.183 16.4078 276.267 16.3078 276.4C16.2245 276.517 16.1578 276.608 16.1078 276.675C15.5411 277.358 15.0828 278.033 14.7328 278.7C14.2661 279.55 13.8995 280.392 13.6328 281.225C13.3828 282.058 13.2578 282.967 13.2578 283.95C13.2578 285.267 14.0578 285.925 15.6578 285.925C16.4078 285.925 17.0995 285.708 17.7328 285.275C18.3828 284.842 18.8995 284.317 19.2828 283.7C19.6661 283.067 19.8578 282.492 19.8578 281.975C19.8578 281.392 19.6661 280.883 19.2828 280.45C18.8995 280.017 18.3745 279.558 17.7078 279.075C17.2745 278.758 16.9578 278.5 16.7578 278.3C16.5578 278.1 16.4578 277.933 16.4578 277.8C16.4578 277.6 16.5995 277.442 16.8828 277.325C17.1661 277.192 17.4995 277.125 17.8828 277.125C18.0995 277.125 18.2411 277.142 18.3078 277.175C18.3745 277.192 18.4078 277.233 18.4078 277.3C18.4078 277.333 18.3745 277.392 18.3078 277.475C18.2578 277.542 18.2328 277.6 18.2328 277.65C18.2328 277.7 18.3995 277.867 18.7328 278.15C19.3995 278.7 19.9578 279.258 20.4078 279.825C20.8578 280.392 21.0828 281.058 21.0828 281.825C21.0828 282.475 20.8411 283.225 20.3578 284.075C19.8745 284.925 19.1911 285.658 18.3078 286.275C17.4245 286.875 16.4161 287.175 15.2828 287.175ZM29.1262 283.825C28.2595 284.875 27.4762 285.683 26.7762 286.25C26.0928 286.817 25.3762 287.1 24.6262 287.1C23.9928 287.1 23.4678 286.825 23.0512 286.275C22.6512 285.725 22.4512 285.092 22.4512 284.375C22.4512 283.308 22.7345 281.958 23.3012 280.325C23.8678 278.692 24.5845 277.275 25.4512 276.075C26.3178 274.875 27.1845 274.275 28.0512 274.275C28.4178 274.275 28.7345 274.408 29.0012 274.675C29.1512 274.825 29.2928 275.025 29.4262 275.275C29.5595 275.525 29.6262 275.75 29.6262 275.95C29.6262 276.233 29.5845 276.567 29.5012 276.95C29.4345 277.317 29.3595 277.5 29.2762 277.5C29.1095 277.5 29.0012 277.408 28.9512 277.225C28.9012 277.042 28.8678 276.808 28.8512 276.525C28.8012 276.092 28.7512 275.808 28.7012 275.675C28.6512 275.525 28.5762 275.45 28.4762 275.45C27.6928 275.45 26.9345 276 26.2012 277.1C25.4678 278.183 24.8678 279.45 24.4012 280.9C23.9345 282.333 23.7012 283.442 23.7012 284.225C23.7012 285.325 24.0678 285.875 24.8012 285.875C25.3345 285.875 25.8178 285.742 26.2512 285.475C26.7012 285.208 27.1678 284.833 27.6512 284.35C28.5512 283.433 29.2512 282.642 29.7512 281.975C29.7845 281.925 29.8762 281.8 30.0262 281.6C30.1928 281.383 30.3095 281.275 30.3762 281.275C30.5762 281.275 30.6762 281.35 30.6762 281.5C30.6762 281.6 30.5012 281.908 30.1512 282.425C29.8178 282.942 29.4762 283.408 29.1262 283.825ZM33.2035 271.725C32.9202 271.725 32.6285 271.608 32.3285 271.375C32.0452 271.142 31.9035 270.95 31.9035 270.8C31.9035 270.617 31.9868 270.442 32.1535 270.275C32.3368 270.108 32.5202 270.025 32.7035 270.025C32.9535 270.108 33.1618 270.242 33.3285 270.425C33.4618 270.558 33.6118 270.733 33.7785 270.95C33.9452 271.167 34.0285 271.3 34.0285 271.35C34.0285 271.6 33.7535 271.725 33.2035 271.725ZM33.9535 287.575C33.7202 287.558 33.5452 287.183 33.4285 286.45C33.3285 285.717 33.2202 284.325 33.1035 282.275C33.0368 280.925 32.9785 279.608 32.9285 278.325C32.8785 277.025 32.8452 276.025 32.8285 275.325C32.8285 275.142 32.8535 275.008 32.9035 274.925C32.9702 274.825 33.0868 274.775 33.2535 274.775C33.6368 274.775 33.8785 274.933 33.9785 275.25C34.0785 275.567 34.1285 276.175 34.1285 277.075L34.1035 280.025C34.1035 281.708 34.1535 283.058 34.2535 284.075C34.2535 284.125 34.3285 284.658 34.4785 285.675C34.5952 286.375 34.6535 286.842 34.6535 287.075C34.6535 287.242 34.5785 287.367 34.4285 287.45C34.2952 287.55 34.1368 287.592 33.9535 287.575ZM48.5479 286.075C48.5479 286.275 48.4645 286.508 48.2979 286.775C48.1312 287.025 47.9645 287.15 47.7979 287.15C47.5145 287.15 47.2979 286.975 47.1479 286.625C46.9979 286.275 46.9229 285.867 46.9229 285.4C46.9229 285 46.9479 283.8 46.9979 281.8L47.0229 280.85C47.0229 280.467 46.9229 280.192 46.7229 280.025C45.9729 281.292 45.2729 282.392 44.6229 283.325C43.9729 284.258 43.1479 285.142 42.1479 285.975C41.1479 286.792 40.0979 287.2 38.9979 287.2C38.4645 287.2 38.0479 287.033 37.7479 286.7C37.4645 286.367 37.3229 285.933 37.3229 285.4C37.3229 284.733 37.6229 283.825 38.2229 282.675C38.8229 281.508 39.5895 280.333 40.5229 279.15C41.4562 277.95 42.3895 276.967 43.3229 276.2C43.9395 275.7 44.4312 275.367 44.7979 275.2C45.1645 275.017 45.4895 274.925 45.7729 274.925C46.0395 274.925 46.3145 275.008 46.5979 275.175C46.8812 275.342 47.1229 275.575 47.3229 275.875C47.5229 276.175 47.6229 276.517 47.6229 276.9C47.6229 277.417 47.4812 277.908 47.1979 278.375L47.6229 278.25C47.8062 278.25 47.9145 278.475 47.9479 278.925C47.9645 279.192 47.9812 279.733 47.9979 280.55C48.0312 281.367 48.0562 282.042 48.0729 282.575C48.0895 283.125 48.1062 283.658 48.1229 284.175C48.1395 284.692 48.1562 285.1 48.1729 285.4C48.1895 285.517 48.2562 285.642 48.3729 285.775C48.4895 285.892 48.5479 285.992 48.5479 286.075ZM46.3729 279.05C46.5729 278.55 46.6729 278.008 46.6729 277.425C46.6729 277.075 46.5645 276.775 46.3479 276.525C46.1479 276.258 45.8729 276.125 45.5229 276.125C45.1062 276.125 44.5729 276.408 43.9229 276.975C43.1729 277.608 42.3812 278.458 41.5479 279.525C40.7145 280.575 40.0229 281.617 39.4729 282.65C38.9229 283.683 38.6479 284.5 38.6479 285.1C38.6479 285.6 38.8812 285.85 39.3479 285.85C40.2479 285.85 41.1145 285.517 41.9479 284.85C42.7812 284.183 43.5229 283.392 44.1729 282.475C44.8395 281.542 45.5729 280.4 46.3729 279.05ZM55.7553 286.4C55.0219 286.95 54.4719 287.225 54.1053 287.225C53.9219 287.225 53.7719 287.158 53.6553 287.025C53.5386 286.892 53.4803 286.733 53.4803 286.55C53.4803 286.367 53.5553 286.183 53.7053 286C53.8719 285.817 54.1136 285.658 54.4303 285.525C55.5803 285.025 56.6303 284.308 57.5803 283.375C58.5303 282.425 59.2719 281.425 59.8053 280.375C60.3386 279.325 60.6053 278.4 60.6053 277.6C60.6053 277.283 60.5303 277.05 60.3803 276.9C60.2469 276.733 60.0219 276.65 59.7053 276.65C59.0053 276.65 58.2886 276.933 57.5553 277.5C56.8219 278.067 56.1386 278.808 55.5053 279.725C55.0219 280.425 54.5553 281.267 54.1053 282.25C53.6553 283.233 53.3136 284.275 53.0803 285.375C52.9469 285.958 52.6636 286.25 52.2303 286.25C52.1136 286.25 51.9886 286.15 51.8553 285.95C51.7219 285.733 51.6553 285.542 51.6553 285.375C51.6553 283.442 51.5886 280.6 51.4553 276.85C51.3219 273.1 51.2303 270.958 51.1803 270.425C51.1803 270.325 51.1719 270.233 51.1553 270.15C51.1386 270.05 51.1219 269.958 51.1053 269.875C51.0886 269.775 51.0719 269.675 51.0553 269.575C51.0386 269.458 51.0303 269.35 51.0303 269.25C51.0303 268.867 51.2053 268.675 51.5553 268.675C51.8386 268.675 52.0636 268.858 52.2303 269.225C52.4136 269.575 52.5053 269.975 52.5053 270.425V271.75C52.5053 275.717 52.5636 278.767 52.6803 280.9C52.7469 281.95 52.8136 282.533 52.8803 282.65C53.0636 282.1 53.3469 281.483 53.7303 280.8C54.1303 280.117 54.5469 279.483 54.9803 278.9C55.7636 277.833 56.6136 276.983 57.5303 276.35C58.4469 275.7 59.2803 275.375 60.0303 275.375C60.5469 275.375 60.9636 275.542 61.2803 275.875C61.6136 276.208 61.7803 276.692 61.7803 277.325C61.7803 278.742 61.2136 280.292 60.0803 281.975C58.9469 283.642 57.5053 285.117 55.7553 286.4ZM65.1256 286.875C64.9256 286.875 64.7339 286.642 64.5506 286.175C64.3839 285.692 64.3006 284.967 64.3006 284C64.3173 282.117 64.3423 279.842 64.3756 277.175C64.4256 274.508 64.4673 272.5 64.5006 271.15C64.5173 270.667 64.6006 270.217 64.7506 269.8C64.9173 269.383 65.2006 269.175 65.6006 269.175C65.7339 269.175 65.8173 269.25 65.8506 269.4C65.9006 269.533 65.9256 269.8 65.9256 270.2C65.9256 270.217 65.9173 270.275 65.9006 270.375C65.9006 270.458 65.9006 270.617 65.9006 270.85C65.6006 275.233 65.4506 279.508 65.4506 283.675C65.4506 284.208 65.5673 284.775 65.8006 285.375C66.0506 285.975 66.1756 286.292 66.1756 286.325C66.1756 286.492 66.0673 286.625 65.8506 286.725C65.6339 286.825 65.3923 286.875 65.1256 286.875ZM78.3805 281C78.3805 281.3 78.1555 281.958 77.7055 282.975C77.2721 283.992 76.6055 284.933 75.7055 285.8C74.8221 286.667 73.7305 287.1 72.4305 287.1C71.3638 287.1 70.4721 286.767 69.7555 286.1C69.0388 285.433 68.6805 284.408 68.6805 283.025C68.6805 281.725 68.9805 280.442 69.5805 279.175C70.1805 277.892 70.9638 276.85 71.9305 276.05C72.8971 275.233 73.8971 274.825 74.9305 274.825C75.5471 274.825 76.0638 274.967 76.4805 275.25C76.9138 275.517 77.1305 275.908 77.1305 276.425C77.1305 277.008 76.7971 277.575 76.1305 278.125C75.4805 278.675 74.6305 279.158 73.5805 279.575C72.5305 279.992 71.4471 280.292 70.3305 280.475C70.1305 281.242 70.0305 281.992 70.0305 282.725C70.0305 283.692 70.2555 284.442 70.7055 284.975C71.1721 285.508 71.8305 285.775 72.6805 285.775C73.9638 285.775 75.0055 285.317 75.8055 284.4C76.6055 283.483 77.2721 282.45 77.8055 281.3C77.8388 281.233 77.8971 281.108 77.9805 280.925C78.0638 280.725 78.1388 280.625 78.2055 280.625C78.3221 280.625 78.3805 280.75 78.3805 281ZM74.6305 275.85C73.9971 275.85 73.3888 276.058 72.8055 276.475C72.2221 276.892 71.7305 277.392 71.3305 277.975C70.9471 278.558 70.6971 279.075 70.5805 279.525C71.3471 279.442 72.1555 279.225 73.0055 278.875C73.8555 278.525 74.5638 278.142 75.1305 277.725C75.7138 277.308 76.0055 276.967 76.0055 276.7C76.0055 276.433 75.8638 276.225 75.5805 276.075C75.3138 275.925 74.9971 275.85 74.6305 275.85Z" fill="#936BE8"/>
<path d="M450.8 588.9C450.083 589.583 449.333 590.133 448.55 590.55C447.783 590.983 447.117 591.2 446.55 591.2C446.233 591.2 446.008 591.117 445.875 590.95C445.742 590.8 445.675 590.617 445.675 590.4C445.675 590.2 446.05 589.967 446.8 589.7C447.933 589.333 448.983 588.717 449.95 587.85C450.7 587.183 451.25 586.425 451.6 585.575C451.95 584.725 452.125 583.858 452.125 582.975C452.125 581.975 452.058 581.058 451.925 580.225C451.808 579.392 451.617 578.367 451.35 577.15C451.05 575.867 450.842 574.775 450.725 573.875C450.442 574.642 450 575.567 449.4 576.65C448.817 577.733 448.117 578.775 447.3 579.775C446.533 580.725 445.833 581.433 445.2 581.9C444.583 582.367 443.983 582.6 443.4 582.6C442.9 582.6 442.525 582.408 442.275 582.025C442.042 581.625 441.925 581.083 441.925 580.4C441.925 579.267 442.275 577.933 442.975 576.4C443.675 574.867 444.55 573.55 445.6 572.45C446.65 571.35 447.683 570.8 448.7 570.8C449.05 570.8 449.317 570.925 449.5 571.175C449.7 571.425 449.8 571.725 449.8 572.075C449.8 572.525 449.708 572.75 449.525 572.75C449.475 572.75 449.408 572.692 449.325 572.575C449.258 572.442 449.175 572.325 449.075 572.225C448.975 572.125 448.867 572.075 448.75 572.075C447.9 572.075 447.033 572.55 446.15 573.5C445.283 574.45 444.558 575.567 443.975 576.85C443.408 578.117 443.125 579.158 443.125 579.975C443.125 580.425 443.183 580.75 443.3 580.95C443.433 581.15 443.633 581.25 443.9 581.25C444.3 581.25 444.783 581.017 445.35 580.55C445.917 580.083 446.592 579.35 447.375 578.35C448.075 577.467 448.708 576.442 449.275 575.275C449.858 574.092 450.3 572.967 450.6 571.9C450.633 571.8 450.683 571.717 450.75 571.65C450.833 571.583 450.925 571.55 451.025 571.55C451.175 571.55 451.325 571.6 451.475 571.7C451.642 571.783 451.725 571.875 451.725 571.975C451.725 572.042 451.708 572.117 451.675 572.2C451.658 572.267 451.642 572.308 451.625 572.325C451.742 573.242 452.017 574.667 452.45 576.6C452.767 577.967 453 579.117 453.15 580.05C453.317 580.967 453.4 581.867 453.4 582.75C453.4 584.05 453.142 585.233 452.625 586.3C452.108 587.367 451.5 588.233 450.8 588.9ZM458.7 583.175C457.583 583.175 456.758 582.867 456.225 582.25C455.691 581.633 455.425 580.867 455.425 579.95C455.425 579.15 455.566 578.158 455.85 576.975C456.15 575.792 456.566 574.733 457.1 573.8C457.133 573.733 457.266 573.492 457.5 573.075C457.75 572.642 458.025 572.317 458.325 572.1C458.625 571.867 458.941 571.75 459.275 571.75C459.425 571.75 459.558 571.792 459.675 571.875C459.808 571.942 459.875 572.033 459.875 572.15C459.875 572.183 459.825 572.267 459.725 572.4C459.641 572.517 459.575 572.608 459.525 572.675C458.958 573.358 458.5 574.033 458.15 574.7C457.683 575.55 457.316 576.392 457.05 577.225C456.8 578.058 456.675 578.967 456.675 579.95C456.675 581.267 457.475 581.925 459.075 581.925C459.825 581.925 460.516 581.708 461.15 581.275C461.8 580.842 462.316 580.317 462.7 579.7C463.083 579.067 463.275 578.492 463.275 577.975C463.275 577.392 463.083 576.883 462.7 576.45C462.316 576.017 461.791 575.558 461.125 575.075C460.691 574.758 460.375 574.5 460.175 574.3C459.975 574.1 459.875 573.933 459.875 573.8C459.875 573.6 460.016 573.442 460.3 573.325C460.583 573.192 460.916 573.125 461.3 573.125C461.516 573.125 461.658 573.142 461.725 573.175C461.791 573.192 461.825 573.233 461.825 573.3C461.825 573.333 461.791 573.392 461.725 573.475C461.675 573.542 461.65 573.6 461.65 573.65C461.65 573.7 461.816 573.867 462.15 574.15C462.816 574.7 463.375 575.258 463.825 575.825C464.275 576.392 464.5 577.058 464.5 577.825C464.5 578.475 464.258 579.225 463.775 580.075C463.291 580.925 462.608 581.658 461.725 582.275C460.841 582.875 459.833 583.175 458.7 583.175ZM469.393 583.175C468.276 583.175 467.451 582.867 466.918 582.25C466.385 581.633 466.118 580.867 466.118 579.95C466.118 579.15 466.26 578.158 466.543 576.975C466.843 575.792 467.26 574.733 467.793 573.8C467.826 573.733 467.96 573.492 468.193 573.075C468.443 572.642 468.718 572.317 469.018 572.1C469.318 571.867 469.635 571.75 469.968 571.75C470.118 571.75 470.251 571.792 470.368 571.875C470.501 571.942 470.568 572.033 470.568 572.15C470.568 572.183 470.518 572.267 470.418 572.4C470.335 572.517 470.268 572.608 470.218 572.675C469.651 573.358 469.193 574.033 468.843 574.7C468.376 575.55 468.01 576.392 467.743 577.225C467.493 578.058 467.368 578.967 467.368 579.95C467.368 581.267 468.168 581.925 469.768 581.925C470.518 581.925 471.21 581.708 471.843 581.275C472.493 580.842 473.01 580.317 473.393 579.7C473.776 579.067 473.968 578.492 473.968 577.975C473.968 577.392 473.776 576.883 473.393 576.45C473.01 576.017 472.485 575.558 471.818 575.075C471.385 574.758 471.068 574.5 470.868 574.3C470.668 574.1 470.568 573.933 470.568 573.8C470.568 573.6 470.71 573.442 470.993 573.325C471.276 573.192 471.61 573.125 471.993 573.125C472.21 573.125 472.351 573.142 472.418 573.175C472.485 573.192 472.518 573.233 472.518 573.3C472.518 573.333 472.485 573.392 472.418 573.475C472.368 573.542 472.343 573.6 472.343 573.65C472.343 573.7 472.51 573.867 472.843 574.15C473.51 574.7 474.068 575.258 474.518 575.825C474.968 576.392 475.193 577.058 475.193 577.825C475.193 578.475 474.951 579.225 474.468 580.075C473.985 580.925 473.301 581.658 472.418 582.275C471.535 582.875 470.526 583.175 469.393 583.175ZM486.162 565.9C486.162 566.233 486.145 566.892 486.112 567.875C486.078 568.842 486.062 569.817 486.062 570.8C486.062 572.7 486.103 574.642 486.187 576.625C486.27 578.592 486.337 579.883 486.387 580.5C486.387 580.6 486.395 580.708 486.412 580.825C486.428 580.942 486.445 581.05 486.462 581.15C486.528 581.617 486.562 581.9 486.562 582C486.562 582.167 486.437 582.325 486.187 582.475C485.953 582.625 485.77 582.7 485.637 582.7C485.453 582.7 485.328 582.633 485.262 582.5C485.212 582.35 485.187 582.15 485.187 581.9C485.187 580.983 485.212 580.025 485.262 579.025L485.287 577.625C485.287 577.158 485.278 576.55 485.262 575.8C485.245 575.033 485.22 574.392 485.187 573.875C484.337 576.608 483.37 578.875 482.287 580.675C481.22 582.458 480.062 583.35 478.812 583.35C478.245 583.35 477.762 583.083 477.362 582.55C476.978 582.017 476.787 581.25 476.787 580.25C476.787 578.933 477.228 577.5 478.112 575.95C479.012 574.4 480.028 573.067 481.162 571.95C482.312 570.833 483.162 570.275 483.712 570.275C484.245 570.275 484.512 570.45 484.512 570.8C484.512 571.033 484.428 571.308 484.262 571.625C484.112 571.925 483.937 572.2 483.737 572.45C483.553 572.7 483.445 572.825 483.412 572.825C483.378 572.825 483.337 572.817 483.287 572.8C483.253 572.767 483.237 572.733 483.237 572.7C483.237 572.617 483.278 572.475 483.362 572.275C483.445 572.075 483.487 571.942 483.487 571.875C483.487 571.792 483.478 571.733 483.462 571.7C483.445 571.667 483.395 571.65 483.312 571.65C482.962 571.65 482.328 572.133 481.412 573.1C480.512 574.05 479.703 575.183 478.987 576.5C478.27 577.817 477.912 579.042 477.912 580.175C477.912 580.575 477.995 580.95 478.162 581.3C478.328 581.65 478.603 581.825 478.987 581.825C480.203 581.825 481.328 580.8 482.362 578.75C483.412 576.683 484.32 574.342 485.087 571.725L485.037 569.625C484.987 567.775 484.962 566.792 484.962 566.675C484.962 565.675 485.003 564.958 485.087 564.525C485.12 564.358 485.153 564.242 485.187 564.175C485.237 564.108 485.328 564.075 485.462 564.075C485.628 564.075 485.795 564.133 485.962 564.25C486.128 564.35 486.212 564.492 486.212 564.675L486.162 565.9ZM502.279 579.825C501.413 580.875 500.629 581.683 499.929 582.25C499.246 582.817 498.529 583.1 497.779 583.1C497.146 583.1 496.621 582.825 496.204 582.275C495.804 581.725 495.604 581.092 495.604 580.375C495.604 579.308 495.888 577.958 496.454 576.325C497.021 574.692 497.738 573.275 498.604 572.075C499.471 570.875 500.338 570.275 501.204 570.275C501.571 570.275 501.888 570.408 502.154 570.675C502.304 570.825 502.446 571.025 502.579 571.275C502.713 571.525 502.779 571.75 502.779 571.95C502.779 572.233 502.738 572.567 502.654 572.95C502.588 573.317 502.513 573.5 502.429 573.5C502.263 573.5 502.154 573.408 502.104 573.225C502.054 573.042 502.021 572.808 502.004 572.525C501.954 572.092 501.904 571.808 501.854 571.675C501.804 571.525 501.729 571.45 501.629 571.45C500.846 571.45 500.088 572 499.354 573.1C498.621 574.183 498.021 575.45 497.554 576.9C497.088 578.333 496.854 579.442 496.854 580.225C496.854 581.325 497.221 581.875 497.954 581.875C498.488 581.875 498.971 581.742 499.404 581.475C499.854 581.208 500.321 580.833 500.804 580.35C501.704 579.433 502.404 578.642 502.904 577.975C502.938 577.925 503.029 577.8 503.179 577.6C503.346 577.383 503.463 577.275 503.529 577.275C503.729 577.275 503.829 577.35 503.829 577.5C503.829 577.6 503.654 577.908 503.304 578.425C502.971 578.942 502.629 579.408 502.279 579.825ZM508.407 583.175C507.29 583.175 506.465 582.867 505.932 582.25C505.399 581.633 505.132 580.867 505.132 579.95C505.132 579.15 505.274 578.158 505.557 576.975C505.857 575.792 506.274 574.733 506.807 573.8C506.84 573.733 506.974 573.492 507.207 573.075C507.457 572.642 507.732 572.317 508.032 572.1C508.332 571.867 508.649 571.75 508.982 571.75C509.132 571.75 509.265 571.792 509.382 571.875C509.515 571.942 509.582 572.033 509.582 572.15C509.582 572.183 509.532 572.267 509.432 572.4C509.349 572.517 509.282 572.608 509.232 572.675C508.665 573.358 508.207 574.033 507.857 574.7C507.39 575.55 507.024 576.392 506.757 577.225C506.507 578.058 506.382 578.967 506.382 579.95C506.382 581.267 507.182 581.925 508.782 581.925C509.532 581.925 510.224 581.708 510.857 581.275C511.507 580.842 512.024 580.317 512.407 579.7C512.79 579.067 512.982 578.492 512.982 577.975C512.982 577.392 512.79 576.883 512.407 576.45C512.024 576.017 511.499 575.558 510.832 575.075C510.399 574.758 510.082 574.5 509.882 574.3C509.682 574.1 509.582 573.933 509.582 573.8C509.582 573.6 509.724 573.442 510.007 573.325C510.29 573.192 510.624 573.125 511.007 573.125C511.224 573.125 511.365 573.142 511.432 573.175C511.499 573.192 511.532 573.233 511.532 573.3C511.532 573.333 511.499 573.392 511.432 573.475C511.382 573.542 511.357 573.6 511.357 573.65C511.357 573.7 511.524 573.867 511.857 574.15C512.524 574.7 513.082 575.258 513.532 575.825C513.982 576.392 514.207 577.058 514.207 577.825C514.207 578.475 513.965 579.225 513.482 580.075C512.999 580.925 512.315 581.658 511.432 582.275C510.549 582.875 509.54 583.175 508.407 583.175ZM531.275 583.475C530.975 583.475 530.825 583.325 530.825 583.025C530.825 579.658 530.717 577.083 530.5 575.3C530.284 573.5 529.909 572.6 529.375 572.6C528.475 572.6 527.159 575.742 525.425 582.025V582.05C525.425 582.25 525.359 582.425 525.225 582.575C525.092 582.708 524.917 582.775 524.7 582.775C524.4 582.775 524.25 582.625 524.25 582.325C524.25 581.658 524.284 580.625 524.35 579.225C524.417 577.658 524.45 576.425 524.45 575.525C524.45 574.275 524.409 573.392 524.325 572.875C524.259 572.342 524.1 572.075 523.85 572.075C523.284 572.075 522.567 573.117 521.7 575.2C520.834 577.267 519.925 579.708 518.975 582.525L518.75 583.175C518.684 583.342 518.584 583.483 518.45 583.6C518.334 583.717 518.2 583.775 518.05 583.775C517.85 583.775 517.717 583.758 517.65 583.725C517.584 583.692 517.542 583.592 517.525 583.425C517.442 582.608 517.375 581.517 517.325 580.15C517.292 579.8 517.259 579.225 517.225 578.425C517.059 575.608 516.909 573.708 516.775 572.725C516.642 571.725 516.575 571.167 516.575 571.05C516.575 570.917 516.642 570.758 516.775 570.575C516.909 570.392 517.034 570.3 517.15 570.3C517.417 570.3 517.634 570.492 517.8 570.875C517.884 571.058 517.975 571.792 518.075 573.075C518.175 574.358 518.259 575.95 518.325 577.85L518.45 581.675C519.367 578.842 520.317 576.275 521.3 573.975C522.284 571.658 523.184 570.5 524 570.5C524.55 570.5 524.925 570.9 525.125 571.7C525.325 572.5 525.425 573.658 525.425 575.175C525.425 575.975 525.409 577.125 525.375 578.625L525.35 579.775C526.034 577.392 526.709 575.392 527.375 573.775C528.059 572.158 528.742 571.35 529.425 571.35C531.142 571.35 532 575.15 532 582.75C532 582.95 531.934 583.117 531.8 583.25C531.667 583.4 531.492 583.475 531.275 583.475ZM550.001 583.475C549.701 583.475 549.551 583.325 549.551 583.025C549.551 579.658 549.442 577.083 549.226 575.3C549.009 573.5 548.634 572.6 548.101 572.6C547.201 572.6 545.884 575.742 544.151 582.025V582.05C544.151 582.25 544.084 582.425 543.951 582.575C543.817 582.708 543.642 582.775 543.426 582.775C543.126 582.775 542.976 582.625 542.976 582.325C542.976 581.658 543.009 580.625 543.076 579.225C543.142 577.658 543.176 576.425 543.176 575.525C543.176 574.275 543.134 573.392 543.051 572.875C542.984 572.342 542.826 572.075 542.576 572.075C542.009 572.075 541.292 573.117 540.426 575.2C539.559 577.267 538.651 579.708 537.701 582.525L537.476 583.175C537.409 583.342 537.309 583.483 537.176 583.6C537.059 583.717 536.926 583.775 536.776 583.775C536.576 583.775 536.442 583.758 536.376 583.725C536.309 583.692 536.267 583.592 536.251 583.425C536.167 582.608 536.101 581.517 536.051 580.15C536.017 579.8 535.984 579.225 535.951 578.425C535.784 575.608 535.634 573.708 535.501 572.725C535.367 571.725 535.301 571.167 535.301 571.05C535.301 570.917 535.367 570.758 535.501 570.575C535.634 570.392 535.759 570.3 535.876 570.3C536.142 570.3 536.359 570.492 536.526 570.875C536.609 571.058 536.701 571.792 536.801 573.075C536.901 574.358 536.984 575.95 537.051 577.85L537.176 581.675C538.092 578.842 539.042 576.275 540.026 573.975C541.009 571.658 541.909 570.5 542.726 570.5C543.276 570.5 543.651 570.9 543.851 571.7C544.051 572.5 544.151 573.658 544.151 575.175C544.151 575.975 544.134 577.125 544.101 578.625L544.076 579.775C544.759 577.392 545.434 575.392 546.101 573.775C546.784 572.158 547.467 571.35 548.151 571.35C549.867 571.35 550.726 575.15 550.726 582.75C550.726 582.95 550.659 583.117 550.526 583.25C550.392 583.4 550.217 583.475 550.001 583.475ZM563.251 583.425C562.918 583.425 562.61 583.075 562.326 582.375C562.06 581.675 561.893 580.95 561.826 580.2C561.76 579.483 561.71 578.033 561.676 575.85C561.66 575.5 561.651 575.15 561.651 574.8C561.651 574.433 561.643 574.125 561.626 573.875C561.143 575.025 560.485 576.333 559.651 577.8C558.818 579.267 557.976 580.525 557.126 581.575C556.293 582.625 555.61 583.15 555.076 583.15C554.526 583.15 554.16 582.858 553.976 582.275C553.81 581.692 553.726 580.767 553.726 579.5C553.726 578.317 553.876 576.975 554.176 575.475C554.493 573.975 554.851 572.833 555.251 572.05C555.418 571.7 555.56 571.467 555.676 571.35C555.793 571.217 555.926 571.15 556.076 571.15C556.493 571.15 556.701 571.233 556.701 571.4C556.701 571.483 556.618 571.675 556.451 571.975C556.001 572.808 555.61 573.808 555.276 574.975C554.943 576.142 554.776 577.708 554.776 579.675C554.776 580.992 554.96 581.65 555.326 581.65C555.76 581.65 556.343 581.175 557.076 580.225C557.826 579.258 558.568 578.108 559.301 576.775C560.035 575.442 560.593 574.283 560.976 573.3C561.11 572.967 561.26 572.45 561.426 571.75C561.476 571.467 561.526 571.267 561.576 571.15C561.626 571.017 561.685 570.95 561.751 570.95C561.935 570.95 562.135 571.025 562.351 571.175C562.568 571.325 562.676 571.483 562.676 571.65C562.676 572.45 562.701 573.825 562.751 575.775C562.818 577.708 562.893 579.05 562.976 579.8C563.043 580.45 563.16 580.958 563.326 581.325C563.51 581.692 563.685 581.983 563.851 582.2C564.018 582.4 564.101 582.525 564.101 582.575C564.101 582.842 564.026 583.05 563.876 583.2C563.726 583.35 563.518 583.425 563.251 583.425ZM573.877 583.9C573.71 583.9 573.569 583.858 573.452 583.775C573.335 583.708 573.277 583.608 573.277 583.475C573.277 582.792 573.327 581.733 573.427 580.3C573.527 578.767 573.577 577.492 573.577 576.475C573.577 575.492 573.544 574.692 573.477 574.075C573.427 573.442 573.294 573.125 573.077 573.125C572.51 573.125 571.885 573.833 571.202 575.25C570.535 576.65 569.769 578.5 568.902 580.8L568.527 581.8C568.46 581.967 568.344 582.1 568.177 582.2C568.027 582.3 567.869 582.35 567.702 582.35C567.502 582.35 567.369 582.333 567.302 582.3C567.235 582.267 567.194 582.167 567.177 582L566.977 579.95L566.602 576.35C566.485 574.917 566.344 573.667 566.177 572.6C566.127 572.35 566.102 572.158 566.102 572.025C566.102 571.775 566.21 571.575 566.427 571.425C566.644 571.258 566.894 571.175 567.177 571.175C567.344 571.175 567.46 571.575 567.527 572.375C567.61 573.175 567.694 574.467 567.777 576.25L567.877 577.575C568.01 579.258 568.085 580.325 568.102 580.775C568.152 580.675 568.194 580.567 568.227 580.45C568.277 580.317 568.335 580.175 568.402 580.025C569.302 577.692 570.144 575.75 570.927 574.2C571.727 572.633 572.494 571.85 573.227 571.85C573.744 571.85 574.094 572.292 574.277 573.175C574.477 574.042 574.602 575.158 574.652 576.525C574.702 578.042 574.727 580.258 574.727 583.175C574.727 583.375 574.644 583.542 574.477 583.675C574.31 583.825 574.11 583.9 573.877 583.9ZM578.476 567.725C578.193 567.725 577.901 567.608 577.601 567.375C577.318 567.142 577.176 566.95 577.176 566.8C577.176 566.617 577.259 566.442 577.426 566.275C577.609 566.108 577.793 566.025 577.976 566.025C578.226 566.108 578.434 566.242 578.601 566.425C578.734 566.558 578.884 566.733 579.051 566.95C579.218 567.167 579.301 567.3 579.301 567.35C579.301 567.6 579.026 567.725 578.476 567.725ZM579.226 583.575C578.993 583.558 578.818 583.183 578.701 582.45C578.601 581.717 578.493 580.325 578.376 578.275C578.309 576.925 578.251 575.608 578.201 574.325C578.151 573.025 578.118 572.025 578.101 571.325C578.101 571.142 578.126 571.008 578.176 570.925C578.243 570.825 578.359 570.775 578.526 570.775C578.909 570.775 579.151 570.933 579.251 571.25C579.351 571.567 579.401 572.175 579.401 573.075L579.376 576.025C579.376 577.708 579.426 579.058 579.526 580.075C579.526 580.125 579.601 580.658 579.751 581.675C579.868 582.375 579.926 582.842 579.926 583.075C579.926 583.242 579.851 583.367 579.701 583.45C579.568 583.55 579.409 583.592 579.226 583.575ZM589.12 579.825C588.254 580.875 587.47 581.683 586.77 582.25C586.087 582.817 585.37 583.1 584.62 583.1C583.987 583.1 583.462 582.825 583.045 582.275C582.645 581.725 582.445 581.092 582.445 580.375C582.445 579.308 582.729 577.958 583.295 576.325C583.862 574.692 584.579 573.275 585.445 572.075C586.312 570.875 587.179 570.275 588.045 570.275C588.412 570.275 588.729 570.408 588.995 570.675C589.145 570.825 589.287 571.025 589.42 571.275C589.554 571.525 589.62 571.75 589.62 571.95C589.62 572.233 589.579 572.567 589.495 572.95C589.429 573.317 589.354 573.5 589.27 573.5C589.104 573.5 588.995 573.408 588.945 573.225C588.895 573.042 588.862 572.808 588.845 572.525C588.795 572.092 588.745 571.808 588.695 571.675C588.645 571.525 588.57 571.45 588.47 571.45C587.687 571.45 586.929 572 586.195 573.1C585.462 574.183 584.862 575.45 584.395 576.9C583.929 578.333 583.695 579.442 583.695 580.225C583.695 581.325 584.062 581.875 584.795 581.875C585.329 581.875 585.812 581.742 586.245 581.475C586.695 581.208 587.162 580.833 587.645 580.35C588.545 579.433 589.245 578.642 589.745 577.975C589.779 577.925 589.87 577.8 590.02 577.6C590.187 577.383 590.304 577.275 590.37 577.275C590.57 577.275 590.67 577.35 590.67 577.5C590.67 577.6 590.495 577.908 590.145 578.425C589.812 578.942 589.47 579.408 589.12 579.825ZM603.098 582.075C603.098 582.275 603.014 582.508 602.848 582.775C602.681 583.025 602.514 583.15 602.348 583.15C602.064 583.15 601.848 582.975 601.698 582.625C601.548 582.275 601.473 581.867 601.473 581.4C601.473 581 601.498 579.8 601.548 577.8L601.573 576.85C601.573 576.467 601.473 576.192 601.273 576.025C600.523 577.292 599.823 578.392 599.173 579.325C598.523 580.258 597.698 581.142 596.698 581.975C595.698 582.792 594.648 583.2 593.548 583.2C593.014 583.2 592.598 583.033 592.298 582.7C592.014 582.367 591.873 581.933 591.873 581.4C591.873 580.733 592.173 579.825 592.773 578.675C593.373 577.508 594.139 576.333 595.073 575.15C596.006 573.95 596.939 572.967 597.873 572.2C598.489 571.7 598.981 571.367 599.348 571.2C599.714 571.017 600.039 570.925 600.323 570.925C600.589 570.925 600.864 571.008 601.148 571.175C601.431 571.342 601.673 571.575 601.873 571.875C602.073 572.175 602.173 572.517 602.173 572.9C602.173 573.417 602.031 573.908 601.748 574.375L602.173 574.25C602.356 574.25 602.464 574.475 602.498 574.925C602.514 575.192 602.531 575.733 602.548 576.55C602.581 577.367 602.606 578.042 602.623 578.575C602.639 579.125 602.656 579.658 602.673 580.175C602.689 580.692 602.706 581.1 602.723 581.4C602.739 581.517 602.806 581.642 602.923 581.775C603.039 581.892 603.098 581.992 603.098 582.075ZM600.923 575.05C601.123 574.55 601.223 574.008 601.223 573.425C601.223 573.075 601.114 572.775 600.898 572.525C600.698 572.258 600.423 572.125 600.073 572.125C599.656 572.125 599.123 572.408 598.473 572.975C597.723 573.608 596.931 574.458 596.098 575.525C595.264 576.575 594.573 577.617 594.023 578.65C593.473 579.683 593.198 580.5 593.198 581.1C593.198 581.6 593.431 581.85 593.898 581.85C594.798 581.85 595.664 581.517 596.498 580.85C597.331 580.183 598.073 579.392 598.723 578.475C599.389 577.542 600.123 576.4 600.923 575.05ZM615.005 573.65C613.472 573.917 612.613 574.067 612.43 574.1L610.805 574.375C610.805 575.242 610.813 576.15 610.83 577.1C610.863 578.05 610.905 578.883 610.955 579.6C611.022 580.567 611.138 581.308 611.305 581.825C611.472 582.342 611.563 582.633 611.58 582.7C611.58 582.867 611.472 583.017 611.255 583.15C611.055 583.3 610.863 583.375 610.68 583.375C610.58 583.375 610.497 583.342 610.43 583.275C610.363 583.225 610.305 583.133 610.255 583C610.155 582.767 610.055 582.333 609.955 581.7C609.872 581.067 609.805 580.367 609.755 579.6C609.705 578.917 609.663 578.125 609.63 577.225C609.613 576.308 609.605 575.425 609.605 574.575C608.672 574.725 607.713 574.908 606.73 575.125C605.847 575.308 605.322 575.4 605.155 575.4C604.955 575.4 604.763 575.342 604.58 575.225C604.413 575.108 604.33 574.95 604.33 574.75C604.33 574.533 604.405 574.392 604.555 574.325C604.705 574.258 604.955 574.225 605.305 574.225C605.555 574.225 605.922 574.183 606.405 574.1C606.888 574 607.197 573.933 607.33 573.9C608.447 573.683 609.205 573.542 609.605 573.475C609.605 573.125 609.588 572.667 609.555 572.1C609.522 571.333 609.505 570.75 609.505 570.35C609.505 569.7 609.522 569.2 609.555 568.85C609.605 568.483 609.688 568.158 609.805 567.875C609.938 567.542 610.188 567.375 610.555 567.375C610.705 567.375 610.805 567.4 610.855 567.45C610.905 567.5 610.93 567.592 610.93 567.725C610.93 567.825 610.888 568.117 610.805 568.6C610.722 569.083 610.68 569.725 610.68 570.525C610.68 571.142 610.697 571.833 610.73 572.6L610.755 573.275C611.505 573.158 612.988 572.85 615.205 572.35C615.338 572.317 615.447 572.2 615.53 572C615.63 571.8 615.73 571.7 615.83 571.7C616.013 571.7 616.197 571.808 616.38 572.025C616.58 572.225 616.68 572.433 616.68 572.65C616.68 572.933 616.555 573.15 616.305 573.3C616.072 573.45 615.638 573.567 615.005 573.65ZM620.834 583.175C619.717 583.175 618.892 582.867 618.359 582.25C617.825 581.633 617.559 580.867 617.559 579.95C617.559 579.15 617.7 578.158 617.984 576.975C618.284 575.792 618.7 574.733 619.234 573.8C619.267 573.733 619.4 573.492 619.634 573.075C619.884 572.642 620.159 572.317 620.459 572.1C620.759 571.867 621.075 571.75 621.409 571.75C621.559 571.75 621.692 571.792 621.809 571.875C621.942 571.942 622.009 572.033 622.009 572.15C622.009 572.183 621.959 572.267 621.859 572.4C621.775 572.517 621.709 572.608 621.659 572.675C621.092 573.358 620.634 574.033 620.284 574.7C619.817 575.55 619.45 576.392 619.184 577.225C618.934 578.058 618.809 578.967 618.809 579.95C618.809 581.267 619.609 581.925 621.209 581.925C621.959 581.925 622.65 581.708 623.284 581.275C623.934 580.842 624.45 580.317 624.834 579.7C625.217 579.067 625.409 578.492 625.409 577.975C625.409 577.392 625.217 576.883 624.834 576.45C624.45 576.017 623.925 575.558 623.259 575.075C622.825 574.758 622.509 574.5 622.309 574.3C622.109 574.1 622.009 573.933 622.009 573.8C622.009 573.6 622.15 573.442 622.434 573.325C622.717 573.192 623.05 573.125 623.434 573.125C623.65 573.125 623.792 573.142 623.859 573.175C623.925 573.192 623.959 573.233 623.959 573.3C623.959 573.333 623.925 573.392 623.859 573.475C623.809 573.542 623.784 573.6 623.784 573.65C623.784 573.7 623.95 573.867 624.284 574.15C624.95 574.7 625.509 575.258 625.959 575.825C626.409 576.392 626.634 577.058 626.634 577.825C626.634 578.475 626.392 579.225 625.909 580.075C625.425 580.925 624.742 581.658 623.859 582.275C622.975 582.875 621.967 583.175 620.834 583.175ZM636.377 573.275C636.26 573.275 636.144 573.225 636.027 573.125C635.927 573.025 635.81 572.883 635.677 572.7C635.56 572.533 635.402 572.392 635.202 572.275C635.019 572.158 634.827 572.1 634.627 572.1C634.144 572.1 633.494 572.742 632.677 574.025C631.86 575.292 631.06 576.892 630.277 578.825C630.294 579.208 630.319 579.692 630.352 580.275C630.402 580.858 630.435 581.292 630.452 581.575L630.527 582.575C630.527 582.808 630.477 583.008 630.377 583.175C630.277 583.358 630.094 583.45 629.827 583.45C629.544 583.45 629.36 583.075 629.277 582.325C629.194 581.558 629.144 580.45 629.127 579C629.11 578.633 629.094 578.108 629.077 577.425C629.077 576.742 629.06 575.925 629.027 574.975C628.977 573.542 628.952 572.517 628.952 571.9C628.952 571.517 629.185 571.325 629.652 571.325C629.935 571.325 630.102 571.45 630.152 571.7C630.219 571.933 630.252 572.392 630.252 573.075V577.05C630.752 575.767 631.294 574.658 631.877 573.725C632.46 572.792 633.027 572.083 633.577 571.6C634.144 571.1 634.644 570.85 635.077 570.85C635.444 570.85 635.794 570.933 636.127 571.1C636.46 571.267 636.727 571.483 636.927 571.75C637.127 572 637.227 572.242 637.227 572.475C637.227 572.625 637.119 572.8 636.902 573C636.702 573.183 636.527 573.275 636.377 573.275Z" fill="#936BE8"/>
</svg>
